<svg id="svg" version="1.1" xmlns="http://www.w3.org/2000/svg" xmlns:xlink="http://www.w3.org/1999/xlink" width="400" height="232.8421052631579" viewBox="0, 0, 400,232.8421052631579"><g id="svgg"><path id="path0" d="M165.453 55.758 C 159.916 56.466,158.309 56.788,146.316 59.590 C 133.972 62.473,131.066 62.871,122.316 62.875 C 115.033 62.878,112.428 62.647,99.368 60.839 C 83.252 58.609,80.800 58.397,70.947 58.392 C 50.446 58.380,36.294 64.927,29.722 77.463 C 24.399 87.618,26.976 95.417,36.472 97.890 C 37.788 98.233,38.959 98.608,39.076 98.725 C 39.192 98.841,38.328 100.980,37.156 103.477 C 29.932 118.879,26.782 135.476,28.191 150.704 L 28.715 156.355 27.726 157.112 C 25.156 159.079,23.881 148.082,25.671 139.404 C 26.467 135.546,26.467 134.737,25.670 134.737 C 23.247 134.737,21.924 150.091,23.547 159.368 C 23.836 161.015,23.702 162.528,22.934 166.316 C 20.086 180.362,20.093 195.714,22.958 218.316 C 24.308 228.965,24.909 232.916,25.144 232.680 C 25.251 232.573,25.043 230.434,24.682 227.927 C 20.446 198.530,20.138 181.138,23.574 165.393 C 24.337 161.898,24.345 161.446,23.725 156.747 C 22.648 148.585,23.353 138.934,25.239 136.012 C 25.978 134.866,26.041 135.774,25.383 138.106 C 23.897 143.376,24.735 158.316,26.517 158.316 C 28.509 158.316,29.381 156.832,28.920 154.228 C 26.414 140.058,30.399 118.061,38.331 102.286 C 40.287 98.395,40.274 98.324,37.456 97.720 C 18.688 93.695,27.968 69.312,51.265 61.437 C 60.387 58.354,73.869 57.835,89.474 59.967 C 124.130 64.702,127.665 64.671,148.842 59.441 C 169.028 54.455,180.935 54.471,191.684 59.497 C 193.942 60.552,195.789 61.619,195.789 61.866 C 195.789 62.516,195.341 62.424,193.738 61.447 C 187.199 57.460,178.998 56.754,167.368 59.177 C 154.385 61.881,148.545 62.749,137.684 63.587 C 121.534 64.833,118.776 64.732,97.263 62.103 C 69.745 58.740,49.403 62.533,36.670 73.402 C 25.467 82.965,26.824 95.612,39.172 96.731 C 41.865 96.975,41.329 97.410,45.775 91.368 C 51.733 83.272,58.344 79.377,60.425 82.737 C 62.242 85.671,54.389 93.659,46.735 96.662 C 43.082 98.095,42.719 98.625,39.111 107.789 C 30.103 130.669,27.169 154.294,32.953 157.380 C 35.821 158.910,37.719 162.599,36.659 164.580 C 35.534 166.683,32.334 164.882,30.781 161.273 C 29.753 158.883,28.892 158.589,27.442 160.132 C 26.258 161.393,26.284 161.879,27.810 167.158 C 35.182 192.644,38.320 218.648,35.610 231.789 C 35.360 232.999,35.369 233.008,35.808 232.000 C 36.501 230.410,36.963 217.480,36.591 210.105 C 36.055 199.498,32.724 182.379,28.128 166.618 L 26.804 162.078 27.638 160.960 C 28.923 159.239,29.352 159.351,30.348 161.667 C 31.504 164.352,33.265 165.895,35.175 165.895 C 39.050 165.895,37.709 159.262,33.366 156.953 C 30.881 155.631,30.520 154.371,30.556 147.158 C 30.631 132.356,40.092 100.446,45.125 98.019 C 45.896 97.647,48.036 96.631,49.881 95.761 C 56.348 92.712,62.352 85.533,60.928 82.552 C 58.981 78.479,51.603 82.456,45.354 90.947 C 40.962 96.916,41.385 96.553,39.132 96.286 C 26.976 94.846,26.262 82.533,37.800 73.300 C 50.906 62.812,70.635 59.197,96.842 62.481 C 125.361 66.054,139.279 65.478,167.579 59.555 C 178.721 57.223,185.303 57.723,192.603 61.459 C 195.529 62.956,196.211 63.039,196.211 61.900 C 196.211 57.955,177.496 54.218,165.453 55.758 M222.737 55.421 C 213.882 56.549,204.632 59.972,204.632 62.120 C 204.632 63.039,205.645 62.875,208.328 61.522 C 216.347 57.478,221.873 57.206,236.421 60.141 C 250.047 62.889,253.741 63.408,265.684 64.250 C 279.569 65.229,285.150 64.951,306.105 62.235 C 332.079 58.869,354.152 63.885,365.985 75.843 C 373.631 83.571,373.591 91.231,365.884 95.163 C 361.509 97.396,360.203 96.976,356.685 92.211 C 350.563 83.916,344.916 79.837,341.509 81.248 C 336.569 83.295,342.471 91.406,352.548 96.421 C 358.012 99.140,358.422 99.694,362.076 109.309 C 368.333 125.770,371.589 143.005,370.337 153.030 C 370.052 155.310,369.973 155.427,367.775 156.833 C 365.190 158.487,363.789 160.747,363.789 163.267 C 363.789 167.731,368.828 166.417,370.983 161.391 C 371.861 159.343,372.299 159.173,373.239 160.515 C 374.155 161.822,374.071 162.847,372.651 167.727 C 367.242 186.316,364.211 203.865,364.211 216.594 C 364.211 223.343,364.936 232.842,365.452 232.842 C 365.603 232.842,365.488 230.900,365.195 228.526 C 363.350 213.556,365.659 194.936,372.401 170.411 C 373.454 166.581,374.316 162.903,374.316 162.238 C 374.316 159.549,371.358 157.884,370.767 160.240 C 370.022 163.210,366.679 166.171,365.152 165.214 C 363.091 163.924,364.772 159.356,368.000 157.476 C 370.546 155.993,370.894 154.812,370.924 147.579 C 370.964 137.501,367.706 122.605,362.518 109.143 C 358.516 98.759,358.480 98.708,353.263 96.134 C 345.234 92.171,338.868 85.611,340.506 82.987 C 342.775 79.353,349.077 83.061,355.724 91.940 C 359.500 96.985,359.532 97.008,362.270 96.726 C 371.269 95.797,374.837 87.532,369.762 79.368 C 361.104 65.439,335.715 58.243,307.368 61.683 C 290.872 63.685,287.192 64.050,281.263 64.270 C 268.355 64.748,252.159 63.000,233.684 59.134 C 222.303 56.752,214.651 57.387,207.620 61.297 C 205.550 62.449,204.706 62.276,206.322 61.032 C 214.662 54.610,229.672 54.137,252.632 59.572 C 265.988 62.733,269.956 63.300,278.737 63.302 C 286.296 63.304,288.013 63.148,303.579 61.057 C 308.558 60.388,314.432 59.607,316.632 59.321 C 328.201 57.817,342.772 58.835,350.737 61.704 C 373.659 69.960,382.037 93.720,363.432 97.710 C 360.742 98.287,360.735 98.128,363.738 104.463 C 371.541 120.925,374.514 139.340,371.954 155.351 C 371.699 156.948,371.751 157.048,373.207 157.742 C 375.066 158.629,375.160 158.541,375.873 155.262 C 377.186 149.217,377.059 144.954,375.306 136.211 C 374.787 133.622,376.062 135.871,376.890 139.004 C 378.149 143.767,378.333 148.862,377.498 155.834 L 376.772 161.895 377.833 167.158 C 380.745 181.605,380.640 195.149,377.421 220.211 C 376.371 228.386,375.855 233.623,376.218 232.421 C 376.550 231.323,378.499 215.979,379.437 207.083 C 380.956 192.684,380.452 177.320,378.088 165.912 C 377.200 161.624,377.198 161.490,377.911 155.836 C 379.066 146.687,377.740 135.251,375.474 134.817 C 374.546 134.639,374.517 135.769,375.365 138.947 C 376.685 143.895,376.566 151.857,375.103 156.521 C 374.557 158.260,371.901 157.414,372.375 155.652 C 375.497 144.049,371.637 119.705,364.203 104.111 C 362.852 101.277,361.920 98.851,362.132 98.721 C 362.343 98.590,363.570 98.208,364.857 97.873 C 380.234 93.868,375.293 73.066,356.722 63.622 C 349.043 59.717,342.125 58.369,329.895 58.393 C 319.951 58.412,318.775 58.519,298.737 61.236 C 278.518 63.978,272.242 63.718,254.008 59.386 C 240.021 56.062,228.834 54.644,222.737 55.421 M166.737 62.084 C 165.000 62.619,160.642 64.190,157.053 65.574 C 144.078 70.576,138.961 71.875,127.741 73.019 C 116.497 74.164,114.595 74.207,106.947 73.489 C 101.851 73.010,98.042 72.886,94.595 73.086 L 89.611 73.376 87.858 71.470 C 82.883 66.063,72.609 67.663,67.422 74.654 C 64.202 78.995,64.472 82.279,67.721 78.277 C 73.299 71.405,80.051 68.613,84.105 71.503 C 85.892 72.777,85.834 73.502,83.895 74.131 C 76.659 76.476,70.626 82.490,71.967 86.019 C 73.833 90.927,84.917 85.868,88.432 78.504 C 89.428 76.416,89.985 75.729,90.862 75.507 C 93.201 74.913,99.804 75.196,106.737 76.186 C 125.989 78.935,136.236 77.179,158.947 67.237 C 162.421 65.716,166.682 64.034,168.416 63.499 C 170.595 62.827,171.613 62.299,171.710 61.789 C 171.901 60.792,170.694 60.863,166.737 62.084 M229.536 61.699 C 229.644 62.255,230.903 62.890,234.105 64.002 C 236.537 64.846,241.747 66.969,245.684 68.720 C 265.626 77.588,275.607 78.929,297.895 75.736 C 308.065 74.279,310.961 74.790,312.523 78.316 C 314.523 82.832,321.602 87.999,325.789 88.000 C 330.459 88.001,330.406 83.134,325.690 78.787 C 323.961 77.194,322.392 76.332,316.682 73.844 L 315.258 73.224 316.233 72.186 C 319.966 68.213,328.647 71.469,333.679 78.729 C 335.607 81.512,336.750 80.173,335.140 77.017 C 330.629 68.176,318.026 65.231,312.986 71.840 L 311.817 73.372 306.927 73.086 C 303.622 72.892,299.524 73.022,294.282 73.485 C 289.657 73.894,285.081 74.065,282.947 73.909 C 275.125 73.339,266.903 72.332,261.977 71.342 C 257.152 70.373,254.237 69.408,238.688 63.631 C 231.812 61.077,229.315 60.550,229.536 61.699 M170.947 61.803 C 170.947 61.985,169.370 62.630,167.442 63.237 C 165.514 63.844,159.877 66.141,154.916 68.342 C 134.913 77.215,125.987 78.418,103.252 75.307 C 98.109 74.603,96.083 74.500,93.148 74.792 L 89.476 75.158 88.129 77.895 C 84.905 84.442,76.021 89.533,73.033 86.545 C 71.387 84.899,72.212 82.755,75.772 79.426 C 77.697 77.625,84.086 74.105,85.430 74.105 C 86.521 74.105,85.876 71.976,84.540 71.164 C 79.930 68.361,73.137 70.731,68.144 76.885 C 65.817 79.753,65.101 79.883,66.370 77.208 C 70.386 68.745,83.154 65.923,87.951 72.438 L 88.954 73.801 94.056 73.521 C 97.497 73.332,101.625 73.461,106.737 73.917 C 114.646 74.623,117.494 74.558,128.211 73.426 C 137.498 72.445,143.570 71.045,151.890 67.968 C 167.739 62.108,170.947 61.070,170.947 61.803 M233.474 62.260 C 234.863 62.688,239.856 64.493,244.570 66.271 C 257.716 71.229,261.814 72.254,273.263 73.449 C 283.924 74.562,286.659 74.622,294.316 73.911 C 299.402 73.439,303.319 73.315,306.961 73.510 L 312.238 73.793 313.407 72.261 C 318.266 65.889,329.130 68.301,334.476 76.939 C 336.434 80.102,335.655 79.863,332.370 76.292 C 326.759 70.194,320.073 68.183,316.213 71.431 C 314.536 72.842,314.617 73.595,316.526 74.360 C 325.717 78.043,330.998 83.739,328.000 86.737 C 325.255 89.481,315.348 83.642,312.848 77.806 C 312.324 76.581,311.699 75.455,311.460 75.303 C 310.181 74.489,303.539 74.496,297.684 75.316 C 275.333 78.446,265.704 77.137,246.030 68.292 C 241.440 66.229,236.074 64.017,234.105 63.376 C 230.608 62.238,229.085 61.470,230.337 61.477 C 230.673 61.479,232.084 61.831,233.474 62.260 M82.874 76.397 C 77.738 78.531,74.360 81.754,74.603 84.288 C 74.985 88.270,83.671 83.989,86.322 78.513 C 87.900 75.253,86.982 74.690,82.874 76.397 M314.257 76.001 C 312.865 79.629,323.922 88.148,326.301 85.280 C 328.030 83.198,323.545 78.396,317.850 76.232 C 315.140 75.202,314.578 75.166,314.257 76.001 M85.788 78.421 C 84.000 81.612,78.528 85.650,76.333 85.398 C 72.464 84.954,77.023 79.353,83.347 76.783 C 86.418 75.534,87.136 76.016,85.788 78.421 M317.149 76.487 C 323.779 79.056,328.612 84.901,324.515 85.393 C 321.770 85.723,313.885 78.489,314.693 76.383 C 314.977 75.643,314.972 75.643,317.149 76.487 M172.023 82.564 C 167.727 82.996,167.214 83.286,167.938 84.875 C 168.216 85.484,168.533 87.053,168.642 88.360 C 168.829 90.604,169.466 98.745,171.365 123.158 C 172.503 137.806,172.948 144.734,172.891 146.947 L 172.842 148.842 176.632 148.710 C 189.662 148.258,194.383 145.952,197.912 138.316 C 203.137 127.010,203.133 105.182,197.904 94.023 C 193.294 84.186,186.373 81.121,172.023 82.564 M187.417 84.076 C 196.920 88.812,201.268 98.559,201.260 115.108 C 201.247 140.078,195.715 147.531,176.632 148.287 L 173.263 148.421 173.336 146.947 C 173.418 145.269,172.930 137.779,171.786 123.158 C 171.351 117.600,170.590 107.558,170.094 100.842 C 169.599 94.126,168.958 87.544,168.671 86.215 C 168.054 83.366,167.961 83.436,173.040 82.948 C 181.187 82.166,184.034 82.390,187.417 84.076 M55.789 83.551 C 52.025 85.251,44.390 95.179,46.867 95.153 C 51.457 95.104,61.137 84.991,58.133 83.383 C 57.159 82.862,57.344 82.849,55.789 83.551 M342.842 83.226 C 340.344 84.234,345.502 90.916,351.006 93.802 C 356.685 96.780,356.112 94.034,349.619 87.151 C 346.447 83.788,344.395 82.600,342.842 83.226 M58.262 84.306 C 59.351 86.034,49.831 94.737,46.851 94.737 C 45.419 94.737,52.668 86.268,55.992 84.058 C 57.169 83.275,57.644 83.327,58.262 84.306 M349.487 87.871 C 352.179 90.749,354.731 94.252,354.386 94.596 C 353.231 95.751,342.737 87.049,342.737 84.936 C 342.737 82.530,345.692 83.815,349.487 87.871 M179.874 85.137 C 179.256 85.754,179.236 88.428,179.797 95.466 C 180.958 110.045,181.492 116.962,181.902 122.737 C 182.900 136.793,183.514 143.093,183.971 143.945 C 185.247 146.329,189.558 144.100,191.025 140.296 C 193.135 134.828,191.119 96.495,188.369 89.811 C 186.768 85.917,181.817 83.194,179.874 85.137 M183.916 85.647 C 188.770 88.183,190.101 93.986,191.198 117.388 C 192.062 135.846,191.530 140.511,188.242 143.277 C 185.196 145.841,184.018 144.673,183.562 138.636 C 182.122 119.544,180.926 104.098,180.190 95.085 C 179.372 85.056,179.956 83.578,183.916 85.647 M212.864 97.649 C 212.733 97.861,212.816 98.537,213.050 99.150 C 213.743 100.974,213.546 102.749,212.160 107.175 C 211.437 109.481,208.615 118.795,205.889 127.871 C 203.156 136.971,200.535 144.933,200.045 145.620 C 198.595 147.658,198.843 148.211,201.211 148.211 C 202.339 148.211,203.828 148.323,204.518 148.462 C 206.039 148.766,206.713 147.663,205.694 146.538 C 204.849 145.603,204.878 145.304,206.255 140.714 C 207.893 135.255,208.056 135.107,212.097 135.423 C 216.803 135.791,217.130 136.085,217.549 140.306 C 217.999 144.838,217.908 145.602,216.778 146.805 C 215.206 148.479,216.214 148.888,223.789 149.647 C 227.495 150.018,230.668 150.320,230.842 150.319 C 231.380 150.314,231.193 149.300,230.350 147.646 C 229.442 145.866,229.069 143.703,227.795 132.842 C 224.782 107.150,223.697 99.306,223.067 98.676 C 222.101 97.710,213.369 96.831,212.864 97.649 M218.932 98.118 C 223.682 98.734,223.241 96.892,227.394 133.474 C 228.386 142.215,229.184 146.578,230.118 148.378 C 230.976 150.030,231.205 149.995,224.377 149.255 C 216.669 148.419,216.621 148.405,217.380 147.227 C 218.627 145.291,218.419 138.311,217.050 136.170 C 216.429 135.198,209.419 134.399,208.030 135.142 C 207.036 135.674,204.462 144.581,204.884 146.025 C 205.433 147.898,205.366 147.949,202.527 147.833 C 199.237 147.699,199.269 147.723,200.354 146.200 C 200.830 145.531,203.017 139.030,205.213 131.755 C 207.409 124.479,210.275 115.021,211.581 110.737 C 213.608 104.088,213.927 102.597,213.757 100.554 C 213.487 97.303,213.307 97.388,218.932 98.118 M146.526 101.831 L 143.789 102.526 143.888 104.000 C 143.942 104.811,144.000 105.823,144.016 106.251 C 144.049 107.088,140.190 117.472,138.848 120.159 C 138.154 121.549,137.946 121.706,137.451 121.210 C 136.771 120.531,134.319 110.100,134.309 107.850 C 134.297 104.876,132.843 104.642,125.685 106.462 C 122.358 107.308,122.028 107.797,123.124 110.262 C 124.271 112.841,133.474 151.853,133.474 154.134 C 133.474 156.965,133.831 157.032,139.879 155.324 C 145.422 153.759,145.733 153.491,144.638 151.225 C 143.724 149.334,138.976 129.679,139.257 128.947 C 140.027 126.938,140.607 127.948,147.138 142.685 C 151.630 152.821,151.108 152.330,156.648 151.639 C 163.005 150.845,163.887 150.333,162.143 148.448 C 161.468 147.719,159.466 143.361,152.427 127.299 C 151.421 125.004,150.611 124.632,146.619 124.632 C 142.242 124.632,141.349 123.891,142.409 121.138 C 142.784 120.165,144.220 116.432,145.600 112.842 C 146.980 109.253,148.314 105.802,148.564 105.175 C 148.814 104.547,149.420 103.632,149.910 103.142 C 151.839 101.214,150.695 100.771,146.526 101.831 M243.368 102.080 C 243.368 102.646,243.558 103.225,243.789 103.368 C 244.666 103.910,239.395 132.430,235.715 147.057 C 234.617 151.420,234.724 151.632,238.155 151.916 L 240.549 152.115 240.295 150.844 C 240.138 150.058,240.920 145.095,242.343 137.839 C 245.826 120.091,245.270 119.905,249.471 140.220 C 252.628 155.480,252.580 155.366,255.955 155.690 C 258.472 155.932,258.178 156.421,260.377 148.335 C 267.145 123.456,271.184 109.711,271.972 108.872 C 273.505 107.240,273.114 106.643,269.887 105.682 C 266.326 104.621,266.083 104.732,266.378 107.275 C 266.571 108.933,266.072 111.079,263.371 120.205 C 259.359 133.765,259.041 134.422,258.130 131.040 C 257.475 128.608,252.780 109.171,252.171 106.371 C 251.470 103.152,250.830 102.465,247.806 101.693 C 244.166 100.764,243.368 100.834,243.368 102.080 M246.878 101.953 C 249.806 102.541,251.133 103.763,251.750 106.441 C 253.023 111.964,257.343 130.101,257.720 131.500 C 258.071 132.806,258.322 133.081,259.065 132.974 C 260.485 132.769,267.206 110.793,266.840 107.548 C 266.575 105.200,266.542 105.218,269.543 106.126 C 272.698 107.081,272.768 107.153,271.683 108.317 C 270.754 109.315,270.092 111.521,262.747 138.105 C 257.537 156.965,258.106 155.536,255.923 155.243 C 253.096 154.864,252.944 154.504,250.354 142.105 C 246.587 124.073,246.683 124.421,245.469 124.421 C 244.757 124.421,244.391 124.685,244.300 125.263 C 244.228 125.726,243.132 131.364,241.866 137.790 C 240.530 144.569,239.674 149.917,239.827 150.527 C 240.066 151.476,239.966 151.579,238.810 151.579 C 236.545 151.579,235.234 150.856,235.553 149.782 C 235.938 148.481,240.346 127.716,242.723 116.000 C 244.584 106.828,244.846 104.057,244.027 102.211 C 243.640 101.339,243.766 101.328,246.878 101.953 M149.148 103.053 C 148.275 104.312,141.459 121.938,141.468 122.914 C 141.483 124.495,142.764 125.053,146.381 125.053 C 150.424 125.053,151.062 125.440,152.517 128.779 C 158.180 141.776,161.053 148.115,161.530 148.665 C 162.856 150.197,162.404 150.418,156.330 151.213 C 151.415 151.856,152.069 152.510,147.646 142.526 C 141.165 127.894,141.220 128.000,140.073 128.000 C 139.394 128.000,138.970 128.290,138.822 128.855 C 138.546 129.910,143.415 150.590,144.243 151.880 C 144.573 152.393,144.842 152.891,144.842 152.987 C 144.842 153.516,135.261 156.340,134.481 156.041 C 134.088 155.890,133.895 155.119,133.895 153.699 C 133.895 151.193,125.429 115.747,123.162 108.766 C 122.826 107.731,124.736 106.973,129.982 106.059 C 133.507 105.445,133.895 105.638,133.895 108.000 C 133.895 110.343,136.310 120.841,137.022 121.594 C 138.321 122.967,139.209 121.327,143.578 109.476 C 144.707 106.415,144.813 105.788,144.379 104.740 C 143.686 103.067,145.277 102.097,148.976 101.937 L 149.952 101.895 149.148 103.053 M279.860 109.333 C 279.705 109.488,279.579 110.251,279.579 111.030 C 279.579 112.618,279.008 114.399,271.173 137.263 C 268.117 146.179,265.234 154.156,264.766 154.991 C 263.351 157.511,263.692 157.922,268.633 159.656 C 274.879 161.848,275.368 161.813,275.368 159.185 C 275.368 157.593,276.946 152.543,282.111 137.606 C 288.833 118.163,289.433 116.565,290.785 114.474 C 291.947 112.677,291.348 112.157,286.268 110.548 C 281.495 109.037,280.370 108.823,279.860 109.333 M113.498 110.119 C 113.049 110.459,111.804 110.737,110.733 110.737 C 99.233 110.737,95.237 123.640,101.314 141.154 C 105.612 153.541,113.201 161.263,121.076 161.263 C 129.977 161.263,133.644 151.425,127.237 144.737 C 124.632 142.018,123.215 142.935,125.256 146.019 C 129.412 152.299,125.400 161.809,120.377 157.583 C 115.361 153.362,105.210 119.528,107.583 114.939 C 109.055 112.093,113.211 112.284,115.960 115.324 C 116.829 116.284,118.534 116.557,118.212 115.684 C 118.105 115.395,117.596 113.879,117.080 112.316 C 116.071 109.260,115.278 108.773,113.498 110.119 M285.458 110.806 C 290.949 112.455,291.344 112.756,290.159 114.376 C 289.267 115.596,287.809 119.621,279.509 143.789 C 276.372 152.925,274.888 157.839,274.899 159.053 C 274.921 161.312,274.644 161.327,269.181 159.349 C 264.223 157.555,264.165 157.505,265.048 155.799 C 266.724 152.556,280.000 113.085,280.000 111.343 C 280.000 109.092,279.812 109.110,285.458 110.806 M115.678 110.421 C 116.124 110.989,117.474 114.825,117.474 115.522 C 117.474 115.756,116.953 115.460,116.316 114.864 C 111.374 110.240,106.526 112.008,106.526 118.435 C 106.526 125.310,116.364 154.710,119.705 157.824 C 125.312 163.047,130.309 152.054,125.438 145.213 C 124.139 143.389,124.814 143.185,126.570 144.871 C 135.339 153.294,125.751 165.219,115.106 159.128 C 106.655 154.293,99.752 141.032,99.071 128.324 C 98.498 117.632,102.275 111.997,110.542 111.208 C 112.269 111.043,113.910 110.680,114.188 110.401 C 114.831 109.758,115.162 109.763,115.678 110.421 M213.265 116.316 C 212.411 118.774,209.263 129.920,209.263 130.483 C 209.263 132.014,213.611 132.939,216.176 131.955 C 217.142 131.584,216.945 128.178,215.321 117.158 C 215.114 115.751,213.666 115.158,213.265 116.316 M299.358 115.895 C 299.298 116.475,296.735 123.122,293.797 130.316 C 291.811 135.179,288.369 143.611,286.148 149.053 C 283.927 154.495,281.730 159.705,281.265 160.632 C 279.989 163.171,280.039 163.230,285.579 165.849 C 288.416 167.190,292.003 168.899,293.551 169.648 C 297.400 171.509,298.293 171.336,299.824 168.435 C 301.367 165.509,301.034 165.193,297.398 166.129 C 294.145 166.967,292.107 166.490,291.890 164.838 C 291.775 163.958,298.718 146.088,299.820 144.429 C 301.333 142.150,303.862 145.130,303.439 148.695 C 303.003 152.382,304.610 151.798,305.872 147.811 C 306.271 146.549,307.435 143.726,308.457 141.539 C 309.479 139.351,310.316 137.399,310.316 137.202 C 310.316 136.245,308.716 137.057,307.696 138.531 C 305.887 141.147,302.316 141.279,302.316 138.730 C 302.316 137.596,306.571 126.659,307.925 124.316 C 309.772 121.117,314.533 124.677,315.208 129.762 C 315.811 134.309,317.959 130.773,318.069 125.053 C 318.105 123.162,318.100 123.155,315.789 122.036 C 310.194 119.324,299.419 115.298,299.358 115.895 M215.748 123.935 C 216.687 131.744,216.672 131.789,213.053 131.789 C 209.323 131.789,209.288 131.633,211.379 124.326 C 214.364 113.894,214.539 113.878,215.748 123.935 M305.263 118.168 C 309.425 119.843,309.443 119.851,314.010 121.927 C 317.857 123.676,318.242 124.227,317.547 126.996 C 317.322 127.896,317.020 129.153,316.876 129.789 C 316.514 131.398,315.946 131.235,315.655 129.439 C 314.878 124.654,309.912 120.573,307.883 123.053 C 306.945 124.199,301.895 137.460,301.895 138.777 C 301.895 142.119,307.754 141.533,308.850 138.081 C 308.995 137.624,309.284 137.356,309.492 137.485 C 309.700 137.613,309.229 138.926,308.446 140.402 C 307.663 141.879,306.405 144.713,305.649 146.701 C 304.029 150.966,303.672 151.197,303.916 147.819 C 304.165 144.384,300.978 141.401,299.499 143.684 C 298.076 145.880,291.064 164.904,291.427 165.583 C 292.287 167.190,294.825 167.547,297.920 166.496 C 298.992 166.132,299.959 165.924,300.068 166.033 C 300.457 166.422,298.080 170.526,297.465 170.526 C 296.919 170.526,286.771 165.946,282.469 163.758 L 280.938 162.979 283.238 157.384 C 290.680 139.284,299.093 118.417,299.551 116.918 C 299.825 116.022,300.056 116.073,305.263 118.168 M46.516 121.564 C 39.065 126.043,38.622 126.605,41.026 128.523 C 41.822 129.159,43.399 131.243,44.531 133.155 C 45.662 135.067,51.380 144.666,57.238 154.485 C 63.095 164.305,68.337 173.305,68.887 174.485 C 72.565 182.383,66.011 189.233,58.526 185.314 C 52.400 182.106,50.656 174.092,55.518 171.491 C 58.197 170.058,56.938 166.828,53.321 165.853 C 44.774 163.552,40.610 175.091,46.909 183.623 C 56.390 196.464,77.893 189.839,77.894 174.076 C 77.895 166.876,79.102 169.289,54.889 128.064 C 52.928 124.725,51.789 122.314,51.707 121.327 C 51.523 119.123,50.500 119.169,46.516 121.564 M51.452 122.070 C 51.620 123.056,52.600 125.315,53.629 127.089 C 55.344 130.047,60.715 139.201,69.976 154.947 C 74.439 162.536,75.928 165.473,76.795 168.392 C 82.557 187.802,54.614 198.710,45.716 180.524 C 41.285 171.467,49.205 161.234,55.492 167.893 C 57.121 169.618,57.072 170.066,55.154 171.041 C 49.622 173.850,52.401 184.002,59.332 186.304 C 67.635 189.062,73.095 182.010,69.104 173.684 C 66.480 168.210,43.310 129.870,41.689 128.321 L 40.043 126.747 41.390 125.723 C 43.965 123.767,50.265 119.983,50.704 120.129 C 50.947 120.210,51.284 121.084,51.452 122.070 M77.474 123.529 C 70.205 126.612,70.421 126.373,72.606 128.926 C 74.148 130.728,74.184 130.850,77.628 146.105 C 78.438 149.695,80.174 157.342,81.486 163.100 C 83.345 171.257,83.810 173.976,83.594 175.415 C 83.245 177.743,83.929 177.842,87.591 175.994 C 90.366 174.593,90.574 174.221,89.118 173.267 C 87.585 172.263,85.298 164.267,86.012 162.408 C 86.314 161.621,91.780 158.737,92.969 158.737 C 94.698 158.737,98.947 164.903,98.947 167.412 C 98.947 169.983,99.193 169.982,105.152 167.391 C 113.874 163.601,113.815 163.657,111.060 161.762 C 109.902 160.965,107.617 158.309,104.827 154.516 C 83.644 125.725,81.152 122.502,80.099 122.536 C 79.929 122.542,78.747 122.988,77.474 123.529 M348.422 122.975 C 346.116 123.662,345.321 126.698,346.737 129.412 C 347.301 130.494,347.292 130.736,346.646 131.829 C 344.914 134.762,348.940 134.121,352.105 130.960 C 355.044 128.025,354.611 122.947,351.422 122.947 C 351.083 122.947,350.553 122.869,350.245 122.773 C 349.937 122.678,349.116 122.769,348.422 122.975 M81.755 124.526 C 82.344 125.163,88.639 133.587,95.744 143.247 C 104.330 154.921,109.218 161.203,110.322 161.983 C 112.774 163.718,113.114 163.420,104.675 166.932 C 99.089 169.257,99.516 169.267,99.280 166.802 C 99.070 164.622,96.041 159.756,94.102 158.485 C 92.163 157.215,85.783 160.485,85.551 162.867 C 85.321 165.237,87.170 172.262,88.300 173.309 L 89.298 174.234 86.890 175.538 C 83.844 177.188,83.857 177.190,84.077 175.053 C 84.201 173.856,83.563 170.196,82.152 164.000 C 80.991 158.905,78.891 149.621,77.484 143.368 C 74.460 129.930,74.382 129.670,73.040 128.410 C 71.548 127.007,71.637 126.882,75.451 125.037 C 79.542 123.059,80.339 122.995,81.755 124.526 M352.931 124.636 C 354.189 126.190,353.901 128.178,352.137 130.131 C 349.512 133.037,345.824 134.345,347.247 131.866 C 347.875 130.770,347.874 130.572,347.227 129.275 C 345.018 124.846,349.891 120.883,352.931 124.636 M325.053 128.856 C 325.053 130.343,324.585 131.304,317.580 144.211 C 314.690 149.537,310.425 157.400,308.104 161.684 C 303.569 170.052,303.034 170.850,301.579 171.406 C 299.794 172.089,300.543 173.000,304.526 174.992 C 306.668 176.064,310.463 178.074,312.958 179.460 C 318.292 182.423,318.472 182.417,321.667 179.178 C 324.411 176.396,324.231 175.778,320.865 176.417 C 311.795 178.137,311.798 177.960,321.113 160.590 C 333.036 138.357,334.850 135.127,335.657 134.695 C 337.590 133.660,335.876 132.118,328.961 128.673 C 325.961 127.179,325.053 127.221,325.053 128.856 M330.996 130.586 C 336.156 133.253,336.532 133.580,335.238 134.273 C 334.420 134.711,332.231 138.599,320.678 160.144 C 313.459 173.607,312.624 175.614,313.768 176.758 C 314.365 177.354,318.641 177.412,321.041 176.855 C 323.418 176.304,323.393 176.575,320.832 179.168 C 318.086 181.949,318.588 181.930,314.155 179.414 C 312.159 178.281,308.442 176.271,305.895 174.947 C 300.389 172.087,300.695 172.326,301.942 171.850 C 303.806 171.137,303.233 172.125,321.571 138.012 C 323.647 134.150,325.224 130.685,325.357 129.696 C 325.637 127.610,325.062 127.519,330.996 130.586 M80.842 142.787 C 80.842 144.022,83.708 156.114,84.234 157.096 C 85.281 159.053,90.947 156.678,90.947 154.282 C 90.947 152.905,82.680 141.895,81.646 141.895 C 81.108 141.895,80.842 142.189,80.842 142.787 M86.146 147.888 C 91.068 154.537,91.110 154.742,87.907 156.418 C 84.736 158.077,84.677 158.002,82.781 149.895 C 80.538 140.304,80.535 140.306,86.146 147.888 M346.791 143.355 C 343.554 144.509,339.857 148.397,338.854 151.702 C 338.121 154.116,338.276 168.276,339.111 175.282 C 340.188 184.311,338.641 188.211,333.983 188.211 C 330.259 188.211,327.944 185.137,327.890 180.124 C 327.846 176.026,326.302 176.546,323.560 181.583 C 322.408 183.700,322.427 184.842,323.613 184.842 C 323.994 184.842,325.753 186.328,327.521 188.144 C 335.086 195.910,344.536 193.385,347.976 182.679 C 349.470 178.027,349.628 174.548,348.880 162.677 C 348.132 150.800,348.199 149.992,350.109 147.967 C 353.896 143.952,359.158 148.743,359.158 156.206 C 359.158 159.252,360.878 158.611,362.782 154.856 C 364.075 152.307,364.071 151.244,362.766 150.748 C 362.203 150.534,360.974 149.319,360.035 148.047 C 356.554 143.335,351.685 141.610,346.791 143.355 M354.216 143.999 C 356.453 144.836,357.932 146.123,360.171 149.184 C 360.817 150.067,361.801 150.962,362.357 151.174 C 363.687 151.679,363.635 152.226,362.000 154.937 C 360.222 157.885,359.582 158.091,359.569 155.719 C 359.535 149.792,356.918 146.105,352.745 146.105 C 348.482 146.105,347.607 148.728,348.275 159.495 C 348.974 170.752,348.968 177.391,348.257 180.211 C 345.144 192.559,335.074 195.934,327.369 187.212 C 326.013 185.677,324.700 184.418,324.452 184.415 C 322.853 184.392,322.892 183.645,324.640 180.878 C 326.658 177.682,327.271 177.547,327.386 180.273 C 327.614 185.676,329.894 188.632,333.833 188.632 C 339.183 188.632,340.719 184.900,339.528 174.799 C 338.420 165.407,338.500 153.534,339.686 151.126 C 342.833 144.741,348.617 141.904,354.216 143.999 M31.390 158.701 C 30.721 159.785,33.240 163.789,34.592 163.789 C 35.755 163.789,35.642 161.190,34.421 159.847 C 33.348 158.667,31.778 158.073,31.390 158.701 M367.159 159.455 C 365.378 161.047,365.111 163.579,366.723 163.579 C 368.527 163.579,370.557 158.949,368.981 158.430 C 368.710 158.341,367.890 158.802,367.159 159.455 M368.358 161.334 C 367.333 163.192,366.225 163.718,365.983 162.462 C 365.801 161.519,368.416 158.563,368.955 159.102 C 369.219 159.367,369.008 160.156,368.358 161.334 M34.075 160.267 C 34.967 161.402,35.267 163.368,34.548 163.368 C 33.960 163.368,32.000 160.666,32.000 159.855 C 32.000 158.802,33.093 159.019,34.075 160.267 M24.240 168.105 C 21.387 181.845,22.118 196.779,26.966 223.789 C 28.555 232.642,28.628 232.986,28.863 232.751 C 28.967 232.647,28.387 228.884,27.573 224.389 C 22.857 198.341,21.996 185.497,24.064 172.017 C 24.867 166.782,25.028 166.886,26.645 173.690 C 30.609 190.364,32.774 207.709,32.958 224.272 C 33.012 229.148,33.213 232.656,33.431 232.524 C 34.444 231.908,32.347 201.523,30.517 190.316 C 29.821 186.049,27.708 175.620,26.764 171.789 C 26.450 170.516,26.075 168.953,25.931 168.316 C 25.614 166.920,24.515 166.784,24.240 168.105 M375.386 167.684 C 373.131 174.817,369.676 194.305,368.847 204.567 C 368.598 207.658,368.218 212.025,368.004 214.270 C 367.383 220.788,367.075 230.425,367.447 231.667 C 367.661 232.381,367.800 230.490,367.817 226.615 C 367.882 211.523,370.516 190.393,374.387 173.895 C 376.156 166.355,376.154 166.357,377.099 172.270 C 379.100 184.784,378.182 198.053,373.478 224.632 C 372.205 231.825,371.823 235.422,372.875 230.316 C 377.995 205.451,379.599 184.964,377.464 171.684 C 376.781 167.438,375.962 165.861,375.386 167.684 M199.158 189.597 C 197.579 190.396,196.919 192.079,197.441 193.972 C 197.678 194.830,197.792 195.611,197.695 195.709 C 197.203 196.200,193.646 193.885,192.621 192.406 C 191.204 190.361,190.839 190.349,185.953 192.176 C 179.285 194.670,164.595 196.173,164.008 194.421 C 163.910 194.132,163.630 193.107,163.384 192.144 C 162.802 189.869,161.097 189.114,158.897 190.157 C 157.252 190.938,156.936 192.893,158.155 194.753 C 158.831 195.786,158.822 195.799,156.889 196.654 C 153.545 198.133,148.513 198.928,148.000 198.058 C 146.829 196.071,145.053 194.502,143.505 194.085 C 137.530 192.476,135.825 198.185,141.649 200.301 C 144.347 201.281,144.425 201.744,142.089 202.910 C 137.579 205.163,133.399 205.095,131.891 202.745 C 128.444 197.375,118.592 196.759,119.836 201.991 C 120.356 204.179,122.038 205.427,126.233 206.736 C 128.976 207.592,128.973 207.856,126.200 209.572 C 121.014 212.782,114.354 213.475,112.701 210.977 C 108.956 205.318,96.421 203.128,96.421 208.132 C 96.421 211.041,100.019 213.452,107.053 215.258 C 111.266 216.339,111.524 216.758,109.444 219.127 C 106.074 222.965,98.071 223.483,92.891 220.198 C 89.337 217.944,87.645 219.033,90.965 221.438 C 98.500 226.896,109.566 225.144,112.970 217.954 C 114.039 215.695,114.083 215.661,116.290 215.361 C 121.472 214.657,126.634 212.507,129.876 209.701 C 130.954 208.768,132.251 207.914,132.760 207.803 C 141.770 205.835,143.348 205.250,145.835 202.958 C 147.342 201.568,148.059 201.245,150.543 200.838 C 154.450 200.196,158.430 198.889,159.832 197.786 C 160.897 196.948,161.498 196.884,168.802 196.830 C 177.360 196.765,179.809 196.382,186.298 194.089 L 190.070 192.757 191.561 194.449 C 195.453 198.865,205.511 198.974,209.216 194.640 L 210.866 192.709 214.591 194.036 C 221.366 196.449,223.506 196.792,232.057 196.836 C 239.807 196.877,239.924 196.891,241.588 197.992 C 243.419 199.203,246.254 200.114,250.515 200.858 C 252.665 201.234,253.586 201.647,254.884 202.820 C 257.034 204.762,259.111 205.646,264.679 206.988 C 268.405 207.886,269.549 208.350,270.790 209.471 C 273.853 212.239,279.767 214.707,284.996 215.401 C 287.046 215.673,287.156 215.755,287.837 217.539 C 290.868 225.477,304.054 227.161,311.053 220.505 C 313.729 217.959,312.527 217.317,309.236 219.534 C 303.084 223.677,294.118 223.195,291.043 218.555 C 289.707 216.538,289.883 216.356,294.350 215.123 C 299.744 213.635,301.860 212.631,303.474 210.792 C 309.313 204.142,295.825 203.342,289.407 209.958 C 286.483 212.973,286.117 213.066,281.212 212.026 C 276.888 211.110,271.155 207.933,272.900 207.420 C 278.391 205.808,281.263 203.748,281.263 201.421 C 281.263 196.722,272.929 197.480,269.317 202.508 C 267.275 205.350,263.597 205.388,258.640 202.617 C 256.572 201.461,256.629 201.292,259.422 200.265 C 264.397 198.436,264.309 193.867,259.300 193.918 C 256.626 193.945,255.095 194.818,253.618 197.158 C 252.469 198.978,252.805 198.953,247.158 197.644 C 243.261 196.741,242.284 195.929,243.135 194.298 C 244.003 192.633,243.957 191.746,242.947 190.737 C 241.167 188.957,238.088 189.877,237.647 192.321 C 237.185 194.890,237.047 194.947,231.372 194.947 C 226.097 194.947,220.440 194.194,217.461 193.096 C 216.542 192.757,214.750 192.087,213.480 191.608 C 210.278 190.401,209.991 190.464,208.023 192.815 C 206.970 194.073,205.697 195.086,204.797 195.383 C 203.198 195.911,202.486 195.662,203.291 194.856 C 204.510 193.638,203.787 190.554,202.075 189.669 C 200.637 188.925,200.494 188.921,199.158 189.597 M203.213 191.861 C 203.366 192.470,203.257 193.618,202.970 194.411 C 201.898 197.375,205.136 196.761,208.280 193.403 L 210.455 191.081 215.249 192.765 C 226.036 196.553,237.895 196.828,237.895 193.291 C 237.895 191.091,240.167 189.700,242.083 190.725 C 243.244 191.346,243.419 192.287,242.667 193.864 C 241.472 196.369,242.633 197.274,248.635 198.514 C 252.882 199.391,252.887 199.390,254.198 197.409 C 256.176 194.420,260.307 193.363,262.000 195.412 C 263.307 196.994,261.750 199.084,258.553 200.042 C 253.550 201.541,260.223 205.412,267.264 205.095 C 267.894 205.067,268.723 204.341,269.738 202.929 C 272.918 198.502,280.842 197.349,280.842 201.314 C 280.842 203.302,275.781 206.737,272.851 206.737 C 269.095 206.737,273.580 210.267,279.756 212.171 C 285.338 213.892,286.685 213.686,289.543 210.674 C 292.975 207.058,294.894 206.164,299.298 206.131 C 308.166 206.065,304.722 211.915,294.327 214.578 C 289.728 215.756,289.504 215.906,289.873 217.583 C 291.198 223.617,306.083 224.765,310.710 219.191 C 311.013 218.825,311.463 218.526,311.709 218.526 C 311.956 218.526,311.628 219.079,310.980 219.755 C 304.887 226.116,292.481 225.241,289.053 218.209 C 287.971 215.990,287.578 215.564,286.316 215.248 C 285.505 215.045,283.232 214.486,281.263 214.007 C 277.511 213.094,273.095 210.885,270.947 208.847 C 269.950 207.901,268.666 207.409,264.842 206.507 C 259.403 205.224,257.527 204.406,255.193 202.297 C 253.815 201.052,253.045 200.748,249.867 200.194 C 246.035 199.526,243.377 198.558,241.287 197.069 C 240.173 196.276,239.667 196.232,234.463 196.465 C 227.490 196.778,221.998 196.013,215.246 193.791 L 210.474 192.221 208.981 194.018 C 206.764 196.687,205.865 197.008,200.646 197.000 C 195.207 196.992,194.524 196.766,192.173 194.205 L 190.352 192.222 186.439 193.582 C 179.748 195.908,177.004 196.335,168.417 196.385 C 161.031 196.428,160.554 196.480,159.284 197.384 C 157.227 198.848,155.452 199.466,151.145 200.213 C 147.544 200.838,147.027 201.050,145.359 202.587 C 142.844 204.905,141.631 205.352,132.339 207.382 C 131.830 207.493,130.504 208.372,129.391 209.335 C 126.602 211.751,122.185 213.729,117.684 214.578 C 113.389 215.388,113.034 215.573,112.712 217.167 C 111.269 224.307,97.730 226.335,90.737 220.460 C 89.000 219.001,90.070 219.097,92.464 220.616 C 97.886 224.054,106.151 223.644,109.658 219.763 C 111.590 217.624,111.739 215.710,110.000 215.366 C 101.753 213.738,96.306 210.612,96.988 207.898 C 98.028 203.754,108.969 206.234,112.196 211.345 C 113.489 213.393,114.580 213.644,118.596 212.814 C 126.775 211.125,132.014 207.350,127.292 206.548 C 123.300 205.869,119.366 202.392,120.402 200.457 C 122.070 197.339,128.887 199.104,131.566 203.347 C 133.114 205.801,137.000 205.742,142.595 203.181 C 145.512 201.845,145.445 201.055,142.325 200.001 C 137.409 198.341,137.120 194.526,141.910 194.526 C 144.099 194.526,146.598 196.132,147.159 197.899 C 147.539 199.094,148.589 199.232,152.138 198.553 C 158.223 197.389,160.103 196.022,158.513 193.920 C 157.394 192.440,158.035 190.915,160.078 190.193 C 161.225 189.787,162.841 191.385,163.153 193.232 C 163.481 195.178,163.785 195.330,167.981 195.650 C 172.441 195.990,179.844 194.837,185.053 192.990 C 191.157 190.827,190.834 190.837,192.104 192.757 C 194.376 196.190,199.396 197.470,198.061 194.276 C 197.343 192.555,198.110 190.525,199.706 189.924 C 200.988 189.441,202.866 190.478,203.213 191.861 M199.100 191.748 C 198.147 193.840,199.939 196.221,201.494 194.931 C 202.340 194.228,202.300 191.323,201.439 190.992 C 200.211 190.521,199.564 190.730,199.100 191.748 M201.018 191.413 C 201.891 191.748,201.884 193.837,201.007 194.564 C 199.819 195.551,198.739 193.570,199.594 191.972 C 200.081 191.061,200.091 191.058,201.018 191.413 M159.653 192.703 C 159.752 193.569,160.020 193.895,160.632 193.895 C 161.927 193.895,161.802 191.836,160.495 191.651 C 159.644 191.530,159.534 191.668,159.653 192.703 M239.310 192.211 C 238.977 193.080,239.429 194.105,240.146 194.105 C 240.989 194.105,241.823 192.969,241.534 192.216 C 241.218 191.393,239.625 191.389,239.310 192.211 M161.053 192.772 C 161.053 193.533,160.229 193.394,160.065 192.605 C 159.974 192.166,160.132 191.974,160.486 192.092 C 160.798 192.196,161.053 192.502,161.053 192.772 M241.023 192.373 C 241.296 192.815,240.246 193.790,239.885 193.429 C 239.560 193.104,239.990 192.000,240.441 192.000 C 240.634 192.000,240.896 192.168,241.023 192.373 M139.998 195.793 C 139.223 197.046,140.542 198.180,143.873 199.125 C 146.562 199.889,146.671 197.381,144.008 196.004 C 142.606 195.279,140.388 195.162,139.998 195.793 M256.526 196.444 C 253.703 198.694,255.806 200.139,259.368 198.397 C 260.465 197.861,260.842 197.408,260.842 196.628 C 260.842 195.060,258.394 194.956,256.526 196.444 M143.895 196.627 C 145.750 197.758,145.763 198.942,143.917 198.573 C 142.184 198.226,140.632 197.205,140.632 196.411 C 140.632 195.527,142.268 195.635,143.895 196.627 M260.421 196.582 C 260.421 197.309,257.822 198.737,256.498 198.737 C 255.180 198.737,255.492 197.929,257.279 196.719 C 258.796 195.691,260.421 195.620,260.421 196.582 M192.211 199.424 C 159.139 201.644,135.017 209.510,117.146 223.902 C 113.264 227.028,108.037 232.388,108.458 232.809 C 108.580 232.930,109.875 231.706,111.336 230.089 C 147.475 190.097,250.984 189.833,289.357 229.633 C 291.145 231.488,292.710 232.904,292.835 232.779 C 293.743 231.871,282.085 221.912,274.942 217.493 C 254.895 205.092,220.305 197.538,192.211 199.424 M122.947 199.953 C 119.937 200.784,122.156 203.930,126.357 204.788 C 130.648 205.664,131.668 204.790,129.442 202.144 C 128.618 201.165,124.339 199.170,124.029 199.621 C 124.013 199.644,123.526 199.794,122.947 199.953 M274.998 200.064 C 270.981 201.219,268.522 206.002,272.335 205.242 C 277.781 204.156,279.579 203.231,279.579 201.511 C 279.579 199.904,277.661 199.298,274.998 200.064 M279.158 201.122 C 279.158 202.676,276.763 204.089,273.472 204.475 C 269.570 204.934,270.794 202.158,275.154 200.659 C 276.637 200.149,279.158 200.440,279.158 201.122 M126.870 200.894 C 129.757 202.377,130.932 204.632,128.818 204.632 C 125.327 204.632,121.649 202.639,122.249 201.074 C 122.550 200.291,125.474 200.176,126.870 200.894 M191.158 203.836 C 167.914 204.634,141.860 211.094,126.744 219.807 C 121.057 223.085,110.172 231.997,110.930 232.754 C 111.048 232.873,112.718 231.473,114.639 229.643 C 127.000 217.871,144.144 210.856,172.211 206.086 C 173.412 205.882,184.934 204.647,187.789 204.416 C 191.832 204.090,211.350 204.230,214.901 204.611 C 216.960 204.832,218.760 204.989,218.901 204.960 C 219.260 204.886,225.806 205.701,232.000 206.591 C 254.330 209.802,275.247 218.761,287.264 230.261 C 288.827 231.757,290.208 232.879,290.333 232.755 C 290.458 232.630,288.894 230.969,286.859 229.062 C 268.299 211.681,233.078 202.397,191.158 203.836 M98.842 207.192 C 96.723 208.426,99.488 211.222,104.139 212.547 C 110.434 214.342,111.836 214.148,110.643 211.646 C 108.975 208.147,101.831 205.451,98.842 207.192 M296.136 207.343 C 292.115 208.600,288.607 212.498,290.464 213.646 C 291.718 214.421,299.792 212.020,301.901 210.246 C 305.047 207.599,301.320 205.722,296.136 207.343 M106.465 208.552 C 108.400 209.506,110.316 211.447,110.316 212.453 C 110.316 214.318,101.437 211.783,99.163 209.270 C 97.149 207.042,102.364 206.529,106.465 208.552 M301.674 207.575 C 304.350 208.592,298.324 212.359,293.158 212.898 C 290.196 213.207,290.164 213.174,291.474 211.172 C 293.336 208.325,298.685 206.439,301.674 207.575 M63.860 210.807 C 63.197 211.470,63.689 212.110,65.213 212.567 C 67.985 213.397,68.454 214.987,66.604 217.272 C 65.842 218.213,65.771 218.220,62.463 217.682 C 53.922 216.295,47.623 221.409,46.962 230.269 L 46.754 233.053 47.368 229.600 C 48.890 221.040,55.244 216.505,63.132 218.348 L 65.895 218.994 67.070 217.602 C 68.885 215.452,68.565 213.526,66.211 212.432 C 62.740 210.820,65.726 210.525,69.431 212.114 C 70.389 212.525,71.989 212.734,73.778 212.682 C 78.219 212.551,79.683 213.657,81.664 218.638 C 83.622 223.561,89.532 227.961,97.053 230.095 C 102.384 231.608,102.094 231.463,101.416 232.284 C 100.925 232.878,100.934 232.949,101.474 232.770 C 103.470 232.110,102.037 231.021,97.470 229.725 C 89.677 227.514,84.794 223.761,82.080 217.897 C 79.814 213.001,78.602 212.144,73.973 212.166 C 71.970 212.176,70.195 211.901,68.721 211.354 C 66.483 210.522,64.381 210.286,63.860 210.807 M332.632 211.224 C 331.793 211.613,329.388 212.028,327.054 212.186 C 322.147 212.519,320.715 213.521,319.143 217.725 C 317.241 222.810,311.364 227.334,303.579 229.707 C 299.921 230.821,299.135 231.208,299.023 231.948 C 298.949 232.440,299.070 232.842,299.292 232.842 C 299.514 232.842,299.670 232.528,299.637 232.144 C 299.593 231.610,300.613 231.136,304.000 230.117 C 311.909 227.738,317.099 223.713,319.773 217.883 C 321.786 213.494,323.075 212.577,327.107 212.665 C 329.182 212.710,330.837 212.510,331.789 212.099 C 333.644 211.298,336.842 210.754,336.842 211.239 C 336.842 211.440,336.041 211.883,335.061 212.224 C 330.090 213.950,333.003 219.533,338.241 218.318 C 345.990 216.521,352.880 221.687,353.680 229.895 C 353.978 232.953,353.989 232.979,354.046 230.708 C 354.276 221.578,347.192 216.222,337.051 217.858 L 334.944 218.198 333.974 216.473 C 332.769 214.328,333.124 213.512,335.650 212.618 C 336.680 212.254,337.474 211.704,337.474 211.355 C 337.474 210.462,334.446 210.380,332.632 211.224 M74.769 213.372 C 74.152 213.989,74.684 214.845,76.526 216.196 C 79.729 218.546,81.282 217.849,78.842 215.157 C 77.736 213.936,75.280 212.860,74.769 213.372 M324.842 213.377 C 322.910 213.782,320.111 217.684,321.753 217.684 C 322.774 217.684,326.316 215.055,326.316 214.297 C 326.316 213.365,325.960 213.143,324.842 213.377 M170.016 214.415 C 162.697 216.885,157.826 225.784,160.345 232.084 C 160.503 232.478,160.638 230.952,160.647 228.693 C 160.676 220.744,164.855 215.726,172.619 214.318 C 182.233 212.575,188.841 218.092,189.509 228.421 L 189.808 233.053 189.743 228.405 C 189.581 216.992,180.811 210.772,170.016 214.415 M78.204 215.382 C 80.161 217.340,79.702 217.678,77.314 216.035 C 74.997 214.441,74.612 213.895,75.807 213.895 C 76.307 213.895,77.385 214.564,78.204 215.382 M325.895 214.235 C 325.895 214.750,322.052 217.350,321.745 217.043 C 321.373 216.672,324.472 213.895,325.257 213.895 C 325.608 213.895,325.895 214.048,325.895 214.235 M194.807 214.596 C 194.295 215.109,194.516 216.110,195.263 216.656 C 195.905 217.124,196.030 218.221,196.229 225.123 L 196.458 233.053 196.545 225.158 C 196.627 217.715,196.583 217.214,195.774 216.406 C 195.303 215.934,195.003 215.409,195.108 215.238 C 195.330 214.879,204.644 215.031,205.015 215.400 C 205.152 215.536,205.365 219.563,205.490 224.350 L 205.718 233.053 205.806 224.346 C 205.915 213.620,206.330 214.316,199.830 214.316 C 197.222 214.316,194.961 214.442,194.807 214.596 M225.953 215.368 C 225.802 215.762,226.139 216.272,226.856 216.730 C 230.455 219.032,229.861 222.513,225.972 221.912 C 219.081 220.847,212.083 225.336,211.230 231.368 L 210.992 233.053 211.554 231.333 C 213.580 225.137,217.425 222.596,224.842 222.552 L 229.263 222.526 229.403 221.302 C 229.665 219.004,229.092 217.334,227.773 216.555 C 225.753 215.361,226.267 215.158,231.303 215.158 C 237.795 215.158,237.423 214.583,237.579 224.865 L 237.703 233.053 237.799 224.831 C 237.924 214.132,238.308 214.737,231.390 214.737 C 227.164 214.737,226.150 214.854,225.953 215.368 M70.063 215.901 C 67.845 217.383,68.197 219.979,70.805 221.369 C 72.000 222.005,74.957 224.008,77.374 225.818 C 81.992 229.276,82.947 229.537,82.947 227.340 C 82.947 225.301,81.851 223.455,79.673 221.827 C 71.278 215.552,70.918 215.330,70.063 215.901 M172.724 216.619 C 170.812 218.227,170.460 219.958,170.621 226.947 L 170.762 233.053 170.855 226.483 C 170.970 218.318,172.532 215.250,176.116 216.149 C 178.830 216.830,179.555 218.817,179.814 226.281 L 180.049 233.053 180.130 226.996 C 180.243 218.465,179.355 216.200,175.705 215.711 C 174.352 215.529,173.829 215.689,172.724 216.619 M324.766 219.337 C 318.947 223.630,318.316 224.358,318.316 226.785 C 318.316 229.424,319.050 229.308,323.488 225.967 C 325.695 224.306,328.674 222.233,330.109 221.360 C 332.926 219.646,333.124 218.975,331.541 216.526 C 330.630 215.118,330.303 215.253,324.766 219.337 M76.346 220.167 C 81.407 223.901,82.837 225.654,82.362 227.544 C 82.095 228.609,82.079 228.602,78.806 226.030 C 76.999 224.609,74.112 222.646,72.391 221.668 C 68.999 219.740,68.623 219.152,69.719 217.480 C 70.673 216.024,70.801 216.076,76.346 220.167 M331.585 217.697 C 332.430 219.330,332.409 219.357,328.304 221.847 C 326.400 223.001,323.657 224.905,322.208 226.078 C 319.115 228.583,318.734 228.667,318.746 226.842 C 318.759 224.947,319.607 224.000,324.880 219.985 C 330.006 216.083,330.639 215.867,331.585 217.697 M54.680 220.109 C 51.493 221.748,49.925 224.840,49.825 229.684 L 49.756 233.053 50.079 229.645 C 51.232 217.483,64.422 215.064,66.352 226.661 L 67.040 230.795 66.078 231.818 C 65.549 232.381,65.310 232.842,65.546 232.842 C 67.637 232.842,67.462 223.771,65.323 221.309 C 63.148 218.805,58.282 218.256,54.680 220.109 M338.860 219.364 C 335.915 220.251,335.350 221.104,334.363 226.150 L 333.442 230.859 334.372 231.849 C 334.883 232.393,335.396 232.744,335.512 232.628 C 335.628 232.512,335.318 231.987,334.823 231.460 L 333.922 230.501 334.709 226.724 C 335.764 221.663,335.805 221.587,338.144 220.402 C 344.341 217.261,350.733 221.932,350.887 229.714 C 350.920 231.385,351.115 232.650,351.320 232.526 C 351.966 232.136,351.211 226.059,350.277 224.129 C 348.311 220.070,343.365 218.005,338.860 219.364 M68.847 223.992 C 67.866 225.579,70.848 232.842,72.481 232.842 C 72.767 232.842,72.423 232.276,71.715 231.584 C 70.550 230.445,70.028 229.157,69.279 225.579 C 68.907 223.800,69.491 224.071,75.893 228.647 C 79.145 230.971,81.978 232.814,82.189 232.744 C 82.574 232.616,82.058 232.226,74.412 226.856 C 69.767 223.594,69.256 223.331,68.847 223.992 M223.296 224.193 C 221.426 225.006,221.042 225.991,221.124 229.762 L 221.195 233.053 221.440 229.621 C 221.733 225.501,222.444 224.421,224.861 224.421 C 227.605 224.421,228.382 225.466,228.666 229.540 L 228.910 233.053 228.981 229.762 C 229.064 225.947,228.678 224.994,226.716 224.175 C 225.004 223.459,224.982 223.460,223.296 224.193 M324.923 228.052 C 321.494 230.505,318.786 232.611,318.906 232.731 C 319.026 232.850,321.711 231.101,324.872 228.844 C 332.254 223.572,332.340 223.548,331.549 226.938 C 330.812 230.094,330.436 230.837,328.999 231.967 C 328.248 232.558,328.098 232.842,328.537 232.842 C 330.171 232.842,331.850 229.292,332.313 224.859 C 332.509 222.978,331.263 223.516,324.923 228.052 M84.070 226.807 C 83.027 227.850,84.243 232.505,85.628 232.771 C 86.316 232.904,86.306 232.832,85.523 232.049 C 84.467 230.993,84.027 229.420,84.387 227.986 L 84.655 226.919 87.275 228.381 C 88.716 229.185,91.937 230.416,94.434 231.115 C 96.930 231.815,99.204 232.526,99.487 232.696 C 99.837 232.906,99.824 232.786,99.445 232.318 C 99.139 231.941,98.286 231.512,97.550 231.363 C 94.128 230.674,89.287 228.968,87.459 227.806 C 85.447 226.528,84.599 226.278,84.070 226.807 M313.205 228.016 C 311.694 228.950,309.179 229.914,306.282 230.670 C 303.780 231.322,301.653 232.093,301.557 232.381 C 301.427 232.773,301.581 232.797,302.165 232.477 C 302.595 232.241,304.747 231.553,306.947 230.948 C 311.039 229.823,312.223 229.343,314.729 227.794 L 316.161 226.910 316.642 227.810 C 317.245 228.935,316.841 230.656,315.685 231.895 C 315.199 232.416,314.994 232.842,315.230 232.842 C 316.611 232.842,317.793 229.526,317.080 227.652 C 316.528 226.200,316.074 226.243,313.205 228.016 " stroke="none" fill="#000000" fill-rule="evenodd"></path></g></svg>