<svg id="svg" version="1.1" xmlns="http://www.w3.org/2000/svg" xmlns:xlink="http://www.w3.org/1999/xlink" width="400" height="372.6315789473684" viewBox="0, 0, 400,372.6315789473684"><g id="svgg"><path id="path0" d="M24.879 0.211 C 24.862 0.442,25.030 1.768,25.252 3.158 C 25.473 4.547,26.039 8.716,26.509 12.421 C 26.979 16.126,27.467 19.770,27.594 20.518 C 27.800 21.735,27.553 22.170,25.252 24.644 C 18.545 31.853,19.460 39.574,26.395 34.284 C 28.559 32.633,28.707 33.090,28.555 40.948 L 28.421 47.901 26.421 50.038 C 23.932 52.697,23.763 54.183,25.746 55.994 C 27.928 57.988,26.906 63.810,24.202 64.788 C 20.781 66.025,20.661 67.538,23.749 70.505 C 26.146 72.809,26.782 74.208,27.232 78.171 C 27.469 80.261,27.431 80.367,26.212 80.997 C 23.838 82.225,24.129 84.625,27.038 87.808 L 29.176 90.148 28.946 97.116 C 28.717 104.046,28.327 105.791,27.397 104.053 C 26.764 102.871,24.027 101.053,22.880 101.053 C 19.508 101.053,20.240 106.303,24.311 111.307 C 25.414 112.662,26.637 114.178,27.030 114.675 C 27.704 115.528,27.688 116.054,26.741 124.000 C 25.394 135.309,25.074 137.539,23.153 149.053 C 19.117 173.233,18.980 192.018,22.747 204.666 C 23.640 207.665,23.646 207.840,22.989 211.784 C 21.790 218.985,22.260 231.704,23.782 233.226 C 24.762 234.205,25.221 233.208,24.798 231.023 C 23.901 226.386,24.872 213.684,26.228 212.328 C 27.167 211.390,28.735 213.179,28.306 214.701 C 27.678 216.935,28.079 237.893,28.815 241.263 C 29.739 245.493,32.113 252.284,34.361 257.126 C 35.640 259.882,36.040 261.142,35.678 261.275 C 35.392 261.380,34.254 261.735,33.150 262.063 C 16.025 267.149,23.471 290.745,44.792 298.955 C 51.996 301.729,55.145 302.106,70.947 302.094 C 85.516 302.082,88.647 301.863,102.316 299.901 C 115.621 297.991,126.120 298.812,144.000 303.159 C 167.647 308.908,178.366 309.206,187.965 304.379 C 192.927 301.884,193.497 299.581,188.584 301.880 C 180.525 305.651,171.251 305.875,158.737 302.599 C 139.335 297.520,116.490 295.892,98.105 298.276 C 71.895 301.676,50.244 298.822,37.152 290.244 C 25.295 282.475,22.503 269.954,31.604 265.372 C 37.130 262.589,37.762 262.777,41.226 268.235 C 47.428 278.007,57.263 283.445,57.263 277.101 C 57.263 272.997,47.686 262.747,43.841 262.735 C 39.149 262.720,29.146 232.327,30.053 220.842 C 30.515 215.003,30.705 214.352,32.163 213.617 C 37.508 210.923,38.976 204.211,34.221 204.211 C 32.881 204.211,30.316 206.540,30.316 207.757 C 30.316 208.071,29.970 208.755,29.547 209.277 L 28.778 210.227 27.863 209.245 C 26.519 207.802,26.681 206.581,29.476 197.081 C 37.277 170.565,38.691 151.184,34.671 125.895 C 33.172 116.465,33.086 117.304,35.579 117.043 C 44.005 116.164,45.744 106.027,39.707 92.978 L 38.211 89.745 39.211 87.714 C 41.325 83.421,40.218 77.203,36.676 73.474 C 33.274 69.891,32.669 68.066,34.363 66.494 C 39.156 62.044,41.087 53.883,38.566 48.726 L 37.789 47.137 39.060 44.726 C 45.415 32.672,43.739 20.813,35.551 19.890 C 33.129 19.617,33.077 19.464,33.856 14.900 C 34.779 9.495,35.851 0.342,35.591 0.082 C 35.468 -0.040,35.367 0.033,35.365 0.246 C 35.355 1.344,34.026 11.264,33.415 14.792 C 32.591 19.552,32.734 20.211,34.591 20.211 C 42.677 20.211,45.003 31.242,39.347 42.762 C 37.212 47.109,37.164 47.426,38.316 49.574 C 40.567 53.774,39.096 60.145,34.720 65.147 C 32.076 68.169,32.275 69.490,36.005 73.690 C 40.058 78.253,41.030 83.405,38.655 87.732 C 37.391 90.036,37.341 89.751,39.938 95.096 C 45.321 106.179,42.828 116.632,34.801 116.632 C 32.717 116.632,32.646 116.981,33.646 122.365 C 35.880 134.399,36.001 135.897,35.986 151.368 C 35.968 170.942,35.125 176.407,28.862 197.581 C 26.299 206.245,26.043 208.359,27.394 209.710 C 28.642 210.958,29.547 210.578,30.598 208.365 C 32.144 205.108,34.490 203.805,35.935 205.402 C 37.427 207.050,36.157 210.213,33.253 212.078 C 30.254 214.004,30.339 213.847,29.814 218.424 C 28.865 226.694,30.552 235.635,35.628 249.228 C 40.222 261.531,40.349 261.734,44.842 263.956 C 53.696 268.335,60.617 279.173,54.547 279.154 C 51.403 279.144,45.602 274.045,41.647 267.814 C 38.357 262.630,38.121 262.511,33.696 263.825 C 23.517 266.848,22.986 278.664,32.633 287.481 C 44.285 298.129,67.135 302.239,96.211 298.916 C 118.077 296.417,138.572 297.765,158.737 303.028 C 170.890 306.200,179.935 306.108,187.871 302.731 C 192.404 300.802,192.219 301.543,187.570 303.941 C 178.427 308.656,167.570 308.451,146.105 303.158 C 125.592 298.099,116.987 297.515,98.454 299.925 C 71.962 303.369,53.953 302.600,42.879 297.552 C 22.595 288.306,17.503 265.877,34.837 262.125 C 36.880 261.683,36.866 261.444,34.494 256.100 C 29.031 243.797,26.654 227.874,28.574 216.454 C 29.094 213.366,28.598 211.666,27.117 211.453 C 25.020 211.152,23.795 217.469,24.125 226.884 C 24.254 230.578,24.185 232.775,23.948 232.537 C 22.641 231.230,22.320 218.473,23.426 211.811 L 24.116 207.659 23.012 203.724 C 19.388 190.804,19.569 173.346,23.576 149.263 C 24.462 143.937,25.579 136.547,26.059 132.842 C 28.514 113.873,28.524 115.126,25.891 112.211 C 22.268 108.197,20.385 103.752,21.695 102.304 C 22.788 101.096,23.383 101.257,25.641 103.368 C 29.059 106.566,29.465 105.563,29.471 93.891 L 29.474 89.466 27.368 87.200 C 24.752 84.383,24.480 82.532,26.526 81.474 C 29.074 80.156,27.600 73.329,23.974 69.658 C 21.431 67.083,21.514 66.600,24.731 65.221 C 25.718 64.797,26.527 64.207,26.527 63.910 C 26.527 63.612,26.793 61.975,27.118 60.272 L 27.708 57.176 26.275 55.589 C 24.411 53.526,24.465 52.910,26.710 50.697 C 28.983 48.456,29.146 47.625,28.969 39.163 C 28.823 32.145,28.663 31.899,25.652 34.080 C 19.605 38.460,19.534 31.752,25.558 25.245 C 27.607 23.032,27.977 22.393,27.954 21.104 C 27.887 17.215,25.043 -2.099,24.879 0.211 M28.819 0.842 C 28.935 1.421,29.354 4.405,29.751 7.474 C 30.902 16.377,32.605 14.473,33.045 3.789 L 33.210 -0.211 32.876 3.158 C 32.414 7.820,31.563 12.632,31.201 12.632 C 31.036 12.632,30.559 10.130,30.141 7.072 C 29.724 4.014,29.209 1.125,28.995 0.651 C 28.656 -0.104,28.634 -0.081,28.819 0.842 M47.194 1.865 C 48.021 6.293,51.918 13.835,54.475 15.958 C 55.007 16.399,54.938 16.792,53.966 18.865 C 50.795 25.630,53.725 34.299,62.106 42.947 C 65.487 46.437,65.580 46.588,65.811 48.967 C 66.352 54.534,72.467 60.431,82.083 64.662 L 86.105 66.431 86.386 68.372 C 87.266 74.457,95.720 78.478,109.628 79.428 L 113.783 79.712 114.406 81.224 C 117.332 88.318,123.334 89.752,141.053 87.588 C 151.855 86.269,152.321 86.234,152.616 86.712 C 152.771 86.962,152.371 87.354,151.710 87.602 C 147.032 89.349,145.484 90.973,145.987 93.605 C 146.653 97.090,152.332 97.122,159.170 93.678 C 165.777 90.351,171.228 89.000,175.985 89.511 C 178.917 89.826,178.804 90.006,175.082 90.958 C 170.054 92.243,170.211 96.342,175.337 97.632 C 181.554 99.198,186.483 98.887,194.526 96.424 C 198.357 95.250,202.628 95.324,207.368 96.645 C 215.798 98.995,219.974 99.219,225.856 97.637 C 230.958 96.266,230.885 92.000,225.742 90.900 C 222.085 90.117,221.960 89.828,225.144 89.514 C 230.380 88.998,234.054 89.936,242.703 93.994 C 249.943 97.391,254.736 96.954,255.081 92.864 C 255.255 90.796,254.437 89.908,250.789 88.204 C 246.269 86.093,248.358 86.015,261.895 87.787 C 277.120 89.781,283.401 88.224,286.336 81.729 L 287.253 79.700 291.182 79.442 C 305.540 78.498,314.947 73.874,314.947 67.758 C 314.947 66.407,315.352 66.062,318.105 65.071 C 327.529 61.679,335.152 54.258,335.366 48.268 C 335.435 46.346,335.582 46.096,337.771 44.176 C 346.602 36.429,350.503 25.497,346.934 18.500 L 346.054 16.776 347.719 14.598 C 351.365 9.831,354.182 3.673,354.070 0.715 C 354.051 0.206,353.772 0.873,353.451 2.197 C 352.605 5.689,349.522 11.481,346.553 15.158 C 345.484 16.481,345.483 16.902,346.539 18.971 C 349.793 25.350,347.282 33.103,339.231 41.535 C 335.053 45.912,335.008 45.981,334.932 48.148 C 334.728 53.984,326.057 62.032,316.737 65.039 C 314.634 65.717,314.526 65.823,314.526 67.209 C 314.526 73.532,303.971 78.694,290.947 78.740 C 287.400 78.753,286.834 79.028,285.870 81.208 C 282.948 87.816,276.791 89.172,259.755 86.960 C 247.457 85.364,244.658 85.873,250.473 88.650 C 254.715 90.675,255.888 92.928,253.627 94.706 C 251.587 96.312,248.050 95.943,243.338 93.634 C 237.240 90.646,232.766 89.227,228.632 88.971 C 222.600 88.598,219.556 90.188,224.421 91.170 C 228.956 92.086,230.276 93.579,228.298 95.556 C 225.424 98.430,217.048 98.729,207.901 96.283 C 200.918 94.416,199.741 94.389,194.202 95.972 C 184.498 98.746,176.540 98.659,173.072 95.741 C 170.882 93.898,172.440 91.705,176.318 91.172 C 181.750 90.425,180.099 89.053,173.768 89.053 C 168.398 89.053,165.521 89.871,158.526 93.388 C 152.466 96.434,147.287 96.352,146.343 93.192 C 145.915 91.761,148.145 89.548,151.145 88.426 C 153.376 87.592,153.615 87.393,153.238 86.689 C 152.671 85.631,151.493 85.659,141.018 86.976 C 124.218 89.088,118.510 87.901,115.343 81.632 C 113.963 78.901,113.676 78.740,110.176 78.729 C 101.620 78.701,92.384 75.938,89.096 72.424 C 87.337 70.543,87.032 69.828,86.604 66.571 C 86.514 65.891,86.256 65.746,82.316 64.162 C 73.467 60.604,66.140 53.263,66.115 47.929 C 66.106 46.022,65.994 45.852,62.387 42.245 C 53.254 33.110,51.326 26.143,55.408 17.025 C 55.519 16.779,54.630 15.263,53.434 13.657 C 50.708 9.997,47.964 4.385,47.683 1.897 C 47.566 0.854,47.329 0.000,47.157 0.000 C 46.986 0.000,47.002 0.839,47.194 1.865 M49.958 1.347 C 50.918 6.445,53.856 12.696,56.314 14.868 C 59.041 17.279,65.332 12.413,64.565 8.487 C 64.049 5.849,64.229 2.801,64.984 1.368 C 65.381 0.616,65.542 0.000,65.342 0.000 C 64.188 -0.000,63.386 4.239,63.956 7.325 L 64.402 9.735 62.381 12.341 C 58.775 16.989,56.584 16.063,52.801 8.291 C 51.788 6.210,50.837 3.584,50.688 2.455 C 50.538 1.326,50.254 0.302,50.056 0.180 C 49.859 0.058,49.815 0.583,49.958 1.347 M73.462 0.908 C 76.591 3.370,77.950 7.058,76.283 8.566 C 74.704 9.995,72.933 8.604,70.526 4.047 C 68.430 0.077,66.987 -0.628,66.328 1.996 C 65.426 5.591,66.735 9.699,69.253 11.174 C 72.656 13.168,75.316 16.998,74.781 19.131 C 74.089 21.890,71.855 20.827,68.626 16.203 C 66.164 12.677,65.382 12.152,64.262 13.272 C 63.183 14.351,63.453 15.432,65.045 16.416 C 68.471 18.534,68.849 21.463,65.784 22.134 C 63.562 22.620,63.606 22.555,64.195 24.500 C 65.391 28.456,66.961 31.628,69.899 36.029 C 74.425 42.809,75.207 43.697,77.523 44.693 C 79.965 45.743,81.491 47.404,82.103 49.677 C 82.489 51.108,83.400 51.999,89.294 56.710 C 96.731 62.654,96.749 62.665,99.169 62.707 C 101.254 62.744,102.564 63.613,103.342 65.476 C 104.575 68.426,117.216 74.673,122.030 74.712 C 124.990 74.736,125.158 74.792,126.241 76.116 C 126.982 77.022,128.090 77.715,129.474 78.136 C 133.462 79.350,155.163 84.601,158.083 85.058 C 159.692 85.310,163.008 85.970,165.452 86.524 C 167.895 87.078,171.884 87.743,174.316 88.002 C 176.747 88.261,179.400 88.643,180.211 88.852 C 181.021 89.061,183.768 89.624,186.316 90.103 C 188.863 90.582,192.747 91.570,194.947 92.298 C 199.704 93.873,201.767 93.914,205.474 92.509 C 209.443 91.003,220.437 88.697,227.946 87.795 C 232.530 87.244,242.973 85.290,248.421 83.964 C 249.926 83.597,254.189 82.571,257.895 81.684 C 270.818 78.590,273.539 77.688,275.169 75.959 C 276.606 74.435,276.669 74.415,279.019 74.691 C 282.861 75.143,296.755 68.290,297.680 65.486 C 298.264 63.718,299.706 62.742,301.775 62.718 C 304.909 62.681,317.869 53.034,318.719 50.105 C 319.528 47.323,320.651 46.046,323.457 44.720 C 327.159 42.971,333.879 33.380,336.215 26.513 C 337.557 22.566,337.545 22.316,336.000 22.316 C 332.449 22.316,332.341 18.798,335.822 16.516 C 337.380 15.495,337.745 13.977,336.652 13.069 C 335.648 12.236,334.611 12.920,333.053 15.442 C 330.111 20.203,327.849 21.656,326.525 19.636 C 325.274 17.727,327.617 13.899,331.619 11.311 L 334.257 9.605 334.569 6.802 C 335.349 -0.213,333.698 -1.573,330.754 3.660 C 328.078 8.416,325.928 10.229,324.735 8.737 C 323.283 6.922,324.061 4.330,326.877 1.597 C 327.782 0.719,328.310 -0.000,328.050 -0.000 C 325.874 0.000,322.800 6.063,323.855 8.274 C 325.241 11.180,328.409 9.343,331.395 3.902 C 333.471 0.119,334.357 0.336,334.266 4.607 C 334.181 8.611,333.936 9.087,330.955 11.047 C 326.458 14.004,324.332 18.769,326.666 20.659 C 328.156 21.865,329.823 21.018,332.001 17.947 C 335.314 13.275,335.606 12.972,336.255 13.510 C 337.212 14.305,336.933 15.132,335.403 16.035 C 331.783 18.172,331.646 22.014,335.171 22.577 C 336.090 22.724,336.842 22.881,336.842 22.925 C 336.842 27.288,326.927 42.681,323.121 44.225 C 320.466 45.303,318.960 46.891,318.557 49.036 C 318.067 51.652,304.687 62.316,301.896 62.316 C 299.422 62.316,298.138 62.978,297.458 64.604 C 296.110 67.831,284.835 73.702,279.192 74.115 C 275.884 74.357,275.575 74.462,274.556 75.683 C 273.097 77.430,269.427 78.518,248.842 83.307 C 246.874 83.765,243.463 84.466,241.263 84.865 C 239.063 85.264,236.240 85.853,234.990 86.174 C 233.739 86.496,230.803 86.954,228.463 87.192 C 222.613 87.787,210.678 90.239,206.132 91.778 C 201.436 93.368,199.661 93.373,195.147 91.809 C 193.173 91.125,189.526 90.168,187.042 89.682 C 184.559 89.196,181.200 88.522,179.579 88.186 C 177.958 87.849,174.722 87.393,172.387 87.172 C 170.053 86.951,167.684 86.600,167.124 86.393 C 166.564 86.185,163.737 85.585,160.842 85.060 C 155.794 84.145,134.214 79.022,129.946 77.726 C 128.626 77.325,127.480 76.609,126.738 75.720 C 125.641 74.406,125.421 74.330,122.266 74.184 C 116.803 73.932,104.019 67.359,103.450 64.511 C 103.172 63.123,101.592 62.316,99.154 62.316 C 97.509 62.316,96.297 61.511,88.548 55.280 C 84.434 51.971,82.526 50.171,82.526 49.598 C 82.526 47.492,81.163 45.797,78.499 44.589 C 75.712 43.325,74.943 42.520,71.227 36.970 C 65.473 28.376,63.175 22.737,65.427 22.737 C 69.568 22.737,69.257 18.412,64.914 15.579 C 64.271 15.160,64.036 14.711,64.216 14.243 C 64.835 12.629,65.686 13.093,67.770 16.181 C 70.311 19.947,71.717 21.139,73.419 20.968 C 77.355 20.573,74.865 13.795,69.665 10.748 C 67.012 9.193,65.578 4.453,66.972 1.849 C 67.739 0.416,67.809 0.474,69.893 4.255 C 73.250 10.345,77.474 11.691,77.474 6.671 C 77.474 4.286,74.542 0.000,72.910 0.000 C 72.558 0.000,72.787 0.377,73.462 0.908 M81.947 0.506 C 82.346 1.150,82.245 3.011,81.417 10.316 C 79.010 31.559,89.072 51.234,109.385 65.003 C 114.794 68.669,116.472 67.572,111.263 63.775 C 93.339 50.709,83.613 29.987,84.294 6.316 L 84.421 1.895 86.421 2.021 C 87.982 2.120,88.421 2.008,88.421 1.510 C 88.421 0.838,87.178 -0.012,86.238 0.017 C 85.934 0.026,86.253 0.349,86.947 0.734 C 87.914 1.270,88.043 1.470,87.496 1.586 C 87.103 1.669,86.360 1.512,85.845 1.236 C 81.322 -1.184,83.954 24.895,89.480 37.263 C 89.790 37.958,90.453 39.474,90.952 40.632 C 94.539 48.948,101.221 57.025,109.895 63.526 C 113.677 66.361,114.915 67.763,112.164 66.096 C 90.419 52.920,79.393 31.824,82.042 8.463 C 82.854 1.306,82.852 0.000,82.035 0.000 C 81.815 0.000,81.775 0.228,81.947 0.506 M97.316 3.114 C 86.505 22.009,94.746 47.077,116.842 62.510 C 142.658 80.542,185.016 90.718,216.211 86.384 C 266.146 79.446,298.370 60.327,306.805 32.632 C 309.885 22.518,307.427 5.856,302.053 0.421 C 301.176 -0.465,301.692 0.909,303.058 3.102 C 313.836 20.400,305.890 46.449,285.417 60.932 C 268.903 72.613,251.233 79.676,227.789 83.965 C 222.319 84.965,219.455 85.358,207.368 86.761 C 193.431 88.378,162.320 83.151,143.368 76.007 C 134.748 72.757,121.245 65.269,114.303 59.889 C 94.962 44.899,87.850 21.881,97.246 4.683 C 99.840 -0.065,99.900 -1.402,97.316 3.114 M99.849 2.012 C 90.606 16.417,93.234 35.710,106.647 51.911 C 112.133 58.538,129.528 69.523,143.051 74.902 C 161.922 82.408,193.574 87.562,209.245 85.682 C 212.150 85.334,216.232 84.847,218.316 84.600 C 244.766 81.468,270.025 71.759,287.807 57.890 C 303.654 45.530,310.756 24.203,304.381 8.118 C 303.113 4.918,300.248 -0.000,299.651 0.000 C 299.458 0.000,299.676 0.616,300.135 1.368 C 302.660 5.504,303.615 7.366,304.572 10.018 C 309.948 24.923,302.660 45.247,287.654 57.200 C 266.149 74.329,232.271 85.238,200.632 85.223 C 161.374 85.203,117.745 67.847,103.528 46.593 C 92.920 30.734,91.847 15.691,100.373 2.363 C 101.204 1.063,101.717 0.000,101.512 0.000 C 101.308 0.000,100.559 0.906,99.849 2.012 M105.756 3.263 C 92.683 23.202,101.047 47.510,126.105 62.408 C 154.474 79.273,194.338 86.033,227.158 79.542 C 274.337 70.213,301.392 49.296,301.452 22.105 C 301.468 14.803,296.026 1.101,292.704 0.080 C 292.396 -0.015,293.018 1.095,294.087 2.546 C 310.587 24.961,297.464 52.407,262.774 68.037 C 225.181 84.975,183.902 85.843,144.211 70.531 C 106.266 55.893,90.188 27.967,105.973 4.115 C 107.088 2.431,108.151 0.816,108.337 0.526 C 108.522 0.237,108.498 0.000,108.285 0.000 C 108.071 0.000,106.933 1.468,105.756 3.263 M108.233 2.632 C 94.434 19.890,101.668 44.783,124.488 58.567 C 164.101 82.494,226.593 84.088,269.972 62.277 C 299.142 47.611,308.376 21.513,291.635 1.053 C 289.698 -1.315,290.173 0.201,292.220 2.920 C 308.573 24.639,296.368 50.790,263.398 64.678 C 221.094 82.498,170.253 81.215,130.657 61.329 C 102.989 47.433,93.622 21.541,109.300 2.293 C 110.327 1.032,110.981 0.000,110.752 0.000 C 110.524 0.000,109.390 1.184,108.233 2.632 M160.450 0.300 C 159.941 9.417,176.545 15.099,184.953 8.686 C 187.536 6.716,190.659 1.045,189.693 0.079 C 189.583 -0.031,189.415 0.143,189.319 0.466 C 186.537 9.846,177.144 13.844,168.171 9.469 C 164.579 7.718,163.196 6.069,160.934 0.842 C 160.683 0.263,160.465 0.019,160.450 0.300 M170.596 2.673 C 170.483 7.354,172.183 9.684,175.712 9.684 C 178.674 9.684,180.265 7.027,180.152 2.267 L 180.093 -0.211 179.787 2.982 C 178.954 11.666,171.601 11.637,170.915 2.947 L 170.666 -0.211 170.596 2.673 M196.298 3.529 C 196.228 6.505,196.028 7.565,195.315 8.718 C 194.051 10.764,194.412 10.902,201.202 10.970 C 207.891 11.038,209.015 10.701,207.158 9.187 C 206.197 8.404,206.084 7.959,205.866 4.059 L 205.626 -0.211 205.550 4.109 C 205.482 7.962,205.565 8.507,206.316 9.150 C 207.773 10.398,207.304 10.526,201.263 10.526 C 195.082 10.526,194.851 10.444,196.016 8.666 C 196.513 7.908,196.632 6.755,196.525 3.733 L 196.385 -0.211 196.298 3.529 M211.189 1.263 C 212.395 9.667,220.099 14.278,226.984 10.718 C 228.081 10.151,228.344 10.153,229.479 10.740 C 231.391 11.728,240.140 11.476,240.341 10.427 C 240.419 10.019,239.954 9.243,239.293 8.675 C 238.194 7.732,238.085 7.360,237.841 3.722 L 237.577 -0.211 237.631 3.868 C 237.681 7.714,237.751 8.015,238.848 9.160 C 239.488 9.828,239.883 10.503,239.725 10.661 C 239.071 11.315,231.103 10.963,229.853 10.224 C 228.769 9.584,228.471 9.568,227.262 10.088 C 226.510 10.411,224.495 10.752,222.785 10.847 C 216.434 11.196,213.730 8.916,211.422 1.263 L 210.978 -0.211 211.189 1.263 M221.116 2.645 C 221.015 7.177,222.291 9.276,225.130 9.254 C 227.789 9.233,229.079 7.096,228.983 2.870 L 228.913 -0.211 228.667 2.990 C 228.375 6.785,227.115 8.815,225.053 8.815 C 223.008 8.815,221.770 6.820,221.450 3.010 L 221.180 -0.211 221.116 2.645 M313.368 0.279 C 311.904 0.870,312.837 2.162,314.632 2.028 L 316.421 1.895 316.818 3.950 C 317.305 6.477,316.505 18.804,315.548 23.496 C 312.329 39.286,303.039 54.014,290.448 63.293 C 286.807 65.976,286.658 66.138,287.133 66.907 C 287.637 67.723,289.490 66.718,294.908 62.692 C 312.997 49.249,321.482 31.132,319.536 10.105 C 319.225 6.747,318.967 3.100,318.962 2.000 C 318.957 0.900,318.783 -0.000,318.574 -0.000 C 318.359 -0.000,318.312 1.233,318.466 2.842 C 319.516 13.829,319.654 16.184,319.431 19.371 C 318.192 37.143,308.585 52.589,291.414 64.418 C 287.299 67.253,286.636 66.918,290.588 64.001 C 302.714 55.050,310.402 43.528,315.125 27.230 C 317.489 19.074,318.228 0.922,316.189 1.108 C 315.853 1.139,315.030 1.309,314.358 1.485 C 312.923 1.864,313.171 1.025,314.675 0.418 C 315.526 0.075,315.530 0.054,314.737 0.060 C 314.274 0.064,313.658 0.162,313.368 0.279 M336.070 1.498 C 336.865 2.845,336.925 3.389,336.667 6.903 C 336.423 10.235,336.481 10.894,337.068 11.381 C 337.446 11.695,338.317 12.768,339.003 13.765 C 342.635 19.044,349.722 11.809,350.940 1.579 C 351.102 0.214,350.963 0.471,350.352 2.660 C 347.356 13.407,342.640 18.018,339.424 13.344 C 338.738 12.347,337.880 11.284,337.517 10.983 C 336.972 10.531,336.902 9.803,337.113 6.797 C 337.372 3.118,336.684 0.000,335.615 -0.000 C 335.379 -0.000,335.584 0.674,336.070 1.498 M365.731 3.158 C 365.850 5.011,366.329 8.989,366.795 12.000 C 368.049 20.102,368.121 19.498,365.854 19.835 C 357.272 21.109,355.433 32.572,361.900 44.483 L 363.305 47.072 362.418 48.866 C 360.066 53.619,361.392 60.022,365.882 65.588 L 368.012 68.229 367.311 69.588 C 366.926 70.336,365.691 71.981,364.566 73.244 C 360.740 77.544,359.635 84.214,362.091 88.187 L 363.065 89.763 361.580 92.776 C 355.348 105.421,357.016 116.071,365.377 117.018 C 366.704 117.168,367.762 117.474,367.729 117.698 C 367.696 117.922,367.273 120.379,366.789 123.158 C 362.336 148.731,363.564 169.202,371.114 195.272 C 374.682 207.593,374.658 207.451,373.443 208.996 C 372.259 210.501,372.085 210.429,370.928 207.959 C 368.613 203.017,364.207 202.680,364.212 207.446 C 364.214 209.681,365.509 211.575,367.969 212.942 C 370.264 214.218,370.258 214.205,370.977 219.407 C 371.927 226.275,369.919 235.938,364.589 250.150 C 360.280 261.641,360.484 261.292,357.246 262.745 C 346.832 267.417,339.122 279.579,346.573 279.579 C 350.387 279.579,356.752 273.775,361.046 266.384 C 365.092 259.417,376.516 267.428,374.740 275.987 C 371.065 293.686,342.830 302.850,305.263 298.536 C 282.610 295.934,263.716 297.162,242.316 302.624 C 229.805 305.818,220.882 305.666,213.226 302.128 C 211.155 301.171,209.805 300.763,209.552 301.016 C 207.483 303.085,218.370 307.172,227.245 307.658 C 235.190 308.093,241.317 307.130,259.765 302.546 C 276.034 298.504,284.368 298.085,302.526 300.399 C 325.698 303.352,344.801 302.990,355.085 299.405 C 376.999 291.764,385.401 267.207,367.847 262.104 C 364.877 261.241,364.856 261.197,366.136 258.544 C 372.155 246.067,374.457 232.748,373.084 218.341 C 372.591 213.169,373.133 211.009,374.683 211.967 C 376.010 212.787,377.140 223.773,376.465 229.294 C 376.000 233.091,376.079 233.684,377.048 233.684 C 378.676 233.684,379.428 216.905,378.066 210.965 C 377.454 208.297,377.468 208.149,378.793 202.965 C 380.709 195.473,381.218 189.194,380.910 176.842 C 380.645 166.199,380.404 163.969,377.861 148.632 C 374.311 127.222,373.134 115.998,374.288 114.563 C 380.691 106.601,382.178 101.515,378.217 101.132 C 377.098 101.024,376.503 101.336,374.804 102.925 L 372.747 104.849 372.479 102.892 C 372.331 101.816,372.211 98.356,372.211 95.204 L 372.211 89.474 373.944 87.792 C 376.797 85.025,377.221 82.722,375.158 81.197 C 372.659 79.349,373.717 74.173,377.320 70.614 C 380.609 67.365,380.509 66.252,376.789 64.717 C 375.458 64.167,375.205 63.826,374.809 62.043 C 373.783 57.420,373.777 57.534,375.145 56.223 C 377.155 54.297,376.957 52.279,374.526 49.917 L 372.632 48.075 372.632 40.950 C 372.632 33.068,372.666 32.931,374.349 34.129 C 378.802 37.300,381.433 36.132,380.200 31.530 C 379.664 29.528,376.438 24.685,375.198 24.022 C 373.437 23.079,373.342 21.662,374.473 13.205 C 375.510 5.454,376.155 -0.845,375.783 0.421 C 375.480 1.452,373.061 20.384,373.056 21.765 C 373.054 22.297,373.862 23.508,374.967 24.629 C 381.454 31.209,381.887 38.416,375.537 34.113 C 372.105 31.787,372.141 31.712,372.290 40.825 L 372.421 48.808 374.211 50.631 C 376.390 52.850,376.522 54.132,374.737 55.723 C 373.260 57.039,373.286 56.809,374.143 60.965 C 374.872 64.501,375.281 65.263,376.449 65.263 C 376.871 65.263,377.748 65.728,378.398 66.297 L 379.579 67.330 377.292 69.598 C 373.546 73.313,372.152 79.734,374.689 81.592 C 376.571 82.970,376.396 84.130,373.895 86.867 L 371.789 89.171 371.793 95.006 C 371.800 105.817,372.071 106.463,375.300 103.368 C 377.310 101.443,378.376 101.071,379.284 101.979 C 380.713 103.408,379.089 107.477,375.135 112.373 L 372.964 115.062 373.444 119.742 C 374.279 127.866,375.978 140.037,377.891 151.595 C 381.630 174.178,381.584 192.736,377.758 205.122 C 376.925 207.820,376.925 207.841,377.756 212.230 C 379.038 218.999,378.388 232.842,376.789 232.842 C 376.540 232.842,376.451 232.346,376.580 231.684 C 377.945 224.703,376.615 211.757,374.503 211.455 C 372.419 211.157,372.105 212.433,372.672 218.905 C 373.923 233.181,371.950 244.856,366.247 256.919 C 364.267 261.107,364.326 261.667,366.818 262.338 C 386.343 267.595,375.226 294.006,350.891 300.177 C 340.539 302.802,319.159 302.443,297.263 299.275 C 285.468 297.568,274.349 298.526,256.842 302.756 C 237.261 307.487,228.915 308.319,220.421 306.387 C 217.059 305.622,210.105 302.564,210.105 301.850 C 210.105 301.333,210.131 301.339,212.724 302.526 C 220.551 306.110,228.986 306.292,241.661 303.153 C 263.136 297.835,284.078 296.310,302.846 298.697 C 333.420 302.586,357.670 298.208,369.299 286.700 C 378.844 277.256,376.747 264.877,365.339 263.313 C 362.967 262.988,362.051 263.507,360.608 265.990 C 356.664 272.782,349.922 279.158,346.684 279.158 C 339.866 279.158,347.192 268.382,357.523 263.217 C 360.564 261.697,360.599 261.660,361.793 258.737 C 369.568 239.695,372.482 227.719,371.401 219.251 C 370.705 213.795,370.695 213.772,368.571 212.645 C 365.283 210.901,363.557 207.030,365.293 205.293 C 366.737 203.850,368.413 204.726,370.173 207.844 C 371.727 210.599,372.385 210.960,373.611 209.734 C 375.125 208.220,374.773 205.826,371.277 193.895 C 363.930 168.816,362.771 147.567,367.383 122.535 C 368.495 116.503,368.521 116.634,366.186 116.625 C 357.961 116.592,355.806 105.585,361.722 93.820 C 363.666 89.954,363.676 89.841,362.316 87.158 C 360.164 82.911,361.157 78.123,365.080 73.831 C 368.854 69.702,369.067 68.155,366.294 64.987 C 361.641 59.669,360.391 53.473,363.039 48.853 L 364.000 47.178 362.035 43.273 C 355.992 31.268,358.172 20.278,366.607 20.220 C 368.522 20.207,368.529 20.140,367.388 12.776 C 366.819 9.107,366.165 4.684,365.934 2.947 L 365.515 -0.211 365.731 3.158 M367.622 0.842 C 367.554 2.428,368.897 12.038,369.272 12.645 C 369.956 13.753,370.947 12.707,370.967 10.855 C 370.978 9.864,371.323 7.016,371.734 4.526 C 372.144 2.037,372.358 -0.000,372.209 -0.000 C 372.059 0.000,371.588 2.605,371.161 5.789 C 369.971 14.665,369.717 14.626,368.440 5.377 C 368.015 2.304,367.648 0.263,367.622 0.842 M70.856 1.368 C 70.971 1.658,71.402 2.747,71.813 3.789 C 72.856 6.433,74.024 8.000,74.951 8.000 C 76.883 8.000,76.398 5.273,74.005 2.677 C 72.445 0.985,70.359 0.118,70.856 1.368 M327.876 1.691 C 325.517 3.547,324.199 7.278,325.700 7.854 C 326.925 8.324,329.091 5.249,329.953 1.813 C 330.264 0.574,329.364 0.521,327.876 1.691 M75.018 4.958 C 75.934 6.438,75.800 7.718,74.770 7.323 C 73.993 7.025,72.158 3.957,71.760 2.287 L 71.465 1.053 72.815 2.316 C 73.557 3.011,74.548 4.200,75.018 4.958 M328.663 3.895 C 327.327 6.720,326.047 8.043,325.650 7.010 C 325.187 5.804,328.814 0.674,329.584 1.444 C 329.673 1.533,329.259 2.636,328.663 3.895 M125.474 10.637 C 123.960 11.414,123.740 14.360,125.124 15.329 C 127.158 16.753,129.684 15.640,129.684 13.320 C 129.684 10.846,127.624 9.534,125.474 10.637 M273.033 11.560 C 271.241 13.353,272.550 16.421,275.108 16.421 C 276.279 16.421,277.895 14.668,277.895 13.398 C 277.895 12.325,276.049 10.526,274.947 10.526 C 274.463 10.526,273.602 10.991,273.033 11.560 M128.616 11.773 C 130.342 13.679,127.867 16.417,125.701 14.997 C 124.571 14.256,124.346 13.110,125.067 11.762 C 125.641 10.690,127.642 10.696,128.616 11.773 M276.868 12.239 C 277.587 13.034,277.601 13.209,277.026 14.239 C 276.122 15.857,273.995 16.023,273.030 14.551 C 271.499 12.214,274.959 10.130,276.868 12.239 M68.794 12.815 C 68.523 13.521,69.886 16.603,71.215 18.292 C 72.380 19.774,73.685 19.731,73.683 18.211 C 73.679 15.685,69.474 11.044,68.794 12.815 M330.205 13.283 C 328.311 14.610,326.562 18.529,327.583 19.160 C 328.538 19.750,329.755 18.748,331.183 16.194 C 333.036 12.881,332.606 11.601,330.205 13.283 M70.599 13.844 C 72.397 15.346,74.026 18.947,72.907 18.947 C 72.401 18.947,71.475 17.779,70.177 15.504 C 68.639 12.810,68.766 12.314,70.599 13.844 M331.910 13.314 C 332.196 13.600,329.437 18.133,328.684 18.614 C 327.809 19.173,327.506 18.205,328.159 16.941 C 329.481 14.385,331.261 12.664,331.910 13.314 M151.474 15.388 C 150.783 16.113,151.269 17.107,152.847 18.198 C 153.758 18.829,155.077 20.136,155.778 21.104 L 157.053 22.863 157.053 29.720 C 157.053 36.930,156.841 38.077,155.134 40.106 C 153.551 41.986,154.276 42.526,158.381 42.526 C 162.439 42.526,162.916 41.971,160.673 39.855 L 159.158 38.427 159.158 32.949 C 159.158 24.466,159.022 24.415,168.211 36.334 C 173.029 42.583,175.910 44.150,179.368 42.403 L 180.421 41.872 180.632 31.083 L 180.842 20.295 182.247 18.548 C 184.293 16.003,183.912 15.579,179.579 15.579 C 175.370 15.579,174.729 16.120,176.611 18.083 C 178.121 19.660,178.504 21.543,178.516 27.449 C 178.530 34.227,177.940 34.359,173.435 28.581 C 168.145 21.796,164.278 17.034,163.449 16.283 C 162.545 15.465,152.141 14.687,151.474 15.388 M228.563 15.468 C 227.431 15.724,224.842 22.645,224.842 25.414 C 224.842 26.788,225.820 26.889,226.846 25.621 C 229.140 22.786,229.592 22.688,234.564 23.949 C 236.280 24.384,238.300 24.647,239.053 24.533 C 241.096 24.223,240.715 24.962,237.954 26.666 C 227.320 33.230,230.396 48.170,241.615 44.444 C 247.829 42.380,251.553 35.722,246.113 36.402 C 240.170 37.144,240.750 31.376,247.530 22.307 C 251.762 16.644,251.592 14.651,247.009 16.208 C 245.157 16.838,244.479 16.879,242.600 16.476 C 241.379 16.214,238.317 16.000,235.796 16.000 C 233.275 16.000,230.774 15.845,230.238 15.655 C 229.702 15.465,228.948 15.381,228.563 15.468 M164.131 17.999 C 165.129 19.099,167.687 22.273,169.815 25.052 C 177.742 35.402,178.674 35.708,178.856 28.029 C 178.998 22.060,178.427 18.784,177.017 17.478 C 175.659 16.219,176.045 16.000,179.624 16.000 C 183.097 16.000,183.564 16.314,182.116 17.674 C 180.577 19.120,180.211 21.861,180.211 31.937 C 180.211 42.387,180.305 42.105,176.790 42.105 C 173.661 42.105,173.312 41.800,166.730 33.313 C 159.343 23.789,158.753 23.766,158.743 33.003 L 158.737 38.848 160.241 40.266 L 161.744 41.684 158.346 41.684 C 154.914 41.684,154.374 41.421,155.644 40.367 C 157.580 38.762,158.427 25.083,156.802 21.659 C 156.129 20.242,153.071 17.129,152.000 16.772 C 149.740 16.019,152.451 15.477,157.220 15.728 L 162.316 15.997 164.131 17.999 M234.920 16.475 C 236.873 16.404,239.972 16.590,241.806 16.888 C 244.800 17.374,245.357 17.353,247.252 16.680 C 251.143 15.298,251.018 16.628,246.714 22.389 C 239.994 31.385,239.775 38.406,246.263 36.877 C 247.295 36.633,247.783 36.698,248.046 37.113 C 249.382 39.221,243.015 44.302,238.964 44.360 C 229.471 44.497,229.468 32.315,238.960 26.752 C 240.172 26.041,240.842 25.355,240.842 24.824 C 240.842 23.941,240.690 23.894,238.105 23.974 C 237.179 24.003,235.124 23.650,233.539 23.190 C 229.847 22.117,228.517 22.378,227.040 24.467 C 225.021 27.323,224.765 26.465,226.155 21.501 C 227.385 17.105,228.317 15.854,230.045 16.278 C 230.773 16.457,232.966 16.545,234.920 16.475 M58.947 16.857 C 58.408 17.218,58.461 17.402,59.310 18.114 C 60.501 19.113,60.997 19.161,61.323 18.310 C 61.830 16.990,60.219 16.005,58.947 16.857 M339.953 17.023 C 339.814 17.387,339.807 17.965,339.939 18.308 C 340.281 19.200,342.105 18.457,342.105 17.425 C 342.105 16.413,340.315 16.079,339.953 17.023 M63.242 17.347 C 62.020 18.570,63.400 21.183,65.156 20.971 C 67.090 20.739,67.358 19.501,65.783 18.081 C 64.250 16.700,63.970 16.619,63.242 17.347 M335.607 17.729 C 333.811 18.821,333.872 20.767,335.710 20.978 C 337.294 21.159,338.105 20.399,338.105 18.730 C 338.105 16.991,337.331 16.680,335.607 17.729 M60.842 17.684 C 60.985 17.916,60.818 18.105,60.471 18.105 C 60.123 18.105,59.722 17.916,59.579 17.684 C 59.436 17.453,59.603 17.263,59.950 17.263 C 60.298 17.263,60.699 17.453,60.842 17.684 M341.684 17.684 C 341.541 17.916,341.151 18.105,340.817 18.105 C 340.484 18.105,340.211 17.916,340.211 17.684 C 340.211 17.453,340.601 17.263,341.077 17.263 C 341.554 17.263,341.827 17.453,341.684 17.684 M65.608 18.656 C 66.315 19.408,66.407 19.740,66.018 20.129 C 65.243 20.904,64.505 20.730,63.763 19.597 C 62.533 17.720,64.017 16.962,65.608 18.656 M337.684 18.343 C 337.684 19.502,336.839 20.632,335.972 20.632 C 334.802 20.632,334.488 19.500,335.383 18.511 C 336.278 17.521,337.684 17.419,337.684 18.343 M56.024 19.129 C 52.923 22.865,57.671 34.819,65.217 42.274 L 67.731 44.758 69.938 43.958 C 72.857 42.900,72.860 42.951,69.630 37.877 C 66.614 33.140,64.320 28.557,62.520 23.671 C 60.996 19.536,57.636 17.187,56.024 19.129 M341.375 19.457 C 340.065 20.216,339.620 20.865,338.707 23.342 C 336.895 28.256,334.153 33.729,331.422 37.882 C 328.245 42.712,328.218 43.067,330.955 43.962 C 333.995 44.957,336.256 43.122,341.259 35.604 C 347.300 26.524,347.376 15.978,341.375 19.457 M59.442 19.989 C 60.492 20.702,61.208 21.662,61.717 23.041 C 64.710 31.147,65.602 32.920,69.993 39.486 L 72.043 42.551 70.561 43.170 C 67.778 44.334,65.075 42.339,60.709 35.900 C 54.508 26.755,53.656 16.057,59.442 19.989 M344.621 19.778 C 346.715 22.092,344.475 30.171,340.002 36.440 C 334.865 43.639,332.701 44.904,329.326 42.680 C 329.246 42.626,330.706 40.154,332.572 37.186 C 334.876 33.520,336.580 30.169,337.886 26.737 C 340.398 20.135,342.747 17.707,344.621 19.778 M193.263 20.813 C 181.543 25.244,183.308 41.005,195.817 43.613 C 205.814 45.697,212.808 40.664,212.832 31.368 C 212.855 22.482,202.962 17.146,193.263 20.813 M201.873 20.626 C 211.061 22.130,215.053 29.340,211.133 37.351 C 206.777 46.255,189.833 45.111,186.708 35.702 C 184.061 27.733,189.388 20.773,198.526 20.262 C 198.989 20.237,200.496 20.400,201.873 20.626 M32.664 22.456 C 31.728 23.391,30.753 42.977,31.492 45.986 C 31.911 47.692,35.070 47.007,36.117 44.983 C 38.147 41.061,40.462 28.912,39.827 25.524 C 39.166 22.002,34.932 20.188,32.664 22.456 M198.105 21.806 C 193.221 22.807,192.885 39.284,197.701 41.642 C 201.628 43.565,203.789 40.349,203.789 32.586 C 203.789 23.764,202.303 20.946,198.105 21.806 M362.946 22.632 C 360.170 25.146,360.326 29.247,363.640 40.842 C 365.068 45.840,367.246 48.237,369.020 46.764 C 370.069 45.893,369.434 23.166,368.334 22.211 C 367.000 21.052,364.471 21.250,362.946 22.632 M37.290 22.641 C 40.097 24.990,40.287 28.375,38.088 36.879 C 36.154 44.360,35.095 46.316,32.979 46.316 C 31.775 46.316,31.862 47.336,31.968 34.526 L 32.057 23.789 33.105 22.842 C 34.349 21.717,36.086 21.633,37.290 22.641 M367.918 22.632 C 368.728 23.332,368.778 23.936,368.912 34.737 L 369.053 46.105 367.806 46.105 C 365.650 46.105,363.703 41.359,361.635 31.064 C 360.403 24.927,364.386 19.581,367.918 22.632 M200.894 22.863 C 204.035 25.254,204.599 37.507,201.701 40.404 C 199.545 42.560,195.787 40.766,195.131 37.267 C 193.442 28.266,196.839 19.776,200.894 22.863 M25.770 26.729 C 24.287 27.977,22.542 31.306,22.892 32.219 C 23.803 34.593,28.679 29.467,28.143 26.700 C 27.919 25.548,27.163 25.557,25.770 26.729 M372.836 26.116 C 371.954 27.542,375.281 32.842,377.057 32.842 C 378.538 32.842,378.460 31.039,376.870 28.533 C 375.315 26.080,373.522 25.006,372.836 26.116 M27.789 27.305 C 27.789 28.127,25.901 30.959,24.684 31.961 C 23.387 33.030,23.006 31.891,24.049 30.062 C 25.849 26.905,27.789 25.475,27.789 27.305 M374.831 27.053 C 375.882 27.871,377.684 30.768,377.684 31.638 C 377.684 33.571,375.434 31.701,373.751 28.369 C 372.877 26.639,373.431 25.963,374.831 27.053 M215.425 36.241 C 213.881 37.456,213.842 40.406,215.349 41.914 C 217.501 44.066,221.242 42.686,221.740 39.556 C 222.273 36.207,218.191 34.065,215.425 36.241 M220.384 37.085 C 221.794 38.761,221.760 39.779,220.243 41.296 C 218.061 43.477,214.737 42.187,214.737 39.158 C 214.737 36.053,218.387 34.712,220.384 37.085 M70.885 44.629 C 68.764 45.485,69.371 47.086,72.399 48.620 C 75.172 50.025,78.058 50.227,78.229 49.028 C 78.591 46.498,73.625 43.523,70.885 44.629 M326.737 44.681 C 324.123 45.715,321.592 49.352,323.087 49.926 C 325.008 50.663,331.366 47.701,331.368 46.068 C 331.369 44.556,328.911 43.820,326.737 44.681 M76.009 46.790 C 78.255 48.861,78.340 49.264,76.526 49.259 C 73.727 49.251,68.968 46.318,70.343 45.448 C 71.866 44.484,74.075 45.008,76.009 46.790 M330.510 45.454 C 331.939 46.359,327.356 49.263,324.499 49.263 C 322.475 49.263,322.542 48.850,324.901 46.773 C 326.904 45.010,329.020 44.512,330.510 45.454 M67.551 48.046 C 64.485 53.006,84.847 65.909,91.789 63.404 C 94.133 62.559,93.833 61.853,89.599 58.243 C 81.569 51.394,81.046 51.077,77.373 50.820 C 75.020 50.655,73.439 50.267,71.688 49.425 C 67.947 47.625,67.834 47.587,67.551 48.046 M329.503 49.320 C 327.546 50.336,326.284 50.666,323.661 50.846 C 320.328 51.074,320.304 51.084,317.105 53.618 C 307.467 61.251,306.558 62.462,309.684 63.506 C 315.787 65.543,332.986 55.436,333.562 49.474 C 333.731 47.728,332.648 47.687,329.503 49.320 M31.684 48.717 C 30.962 48.985,31.009 50.947,31.738 50.947 C 32.790 50.947,33.490 49.725,32.806 49.082 C 32.478 48.774,31.974 48.610,31.684 48.717 M70.958 49.751 C 73.118 50.762,74.571 51.128,77.006 51.277 C 80.607 51.497,79.919 51.079,88.551 58.283 C 93.583 62.482,93.668 62.825,89.820 63.402 C 84.986 64.127,71.217 56.015,68.611 50.906 C 67.148 48.040,67.223 48.003,70.958 49.751 M333.175 48.684 C 334.166 49.675,328.922 55.451,324.394 58.356 C 317.796 62.589,312.579 64.193,309.565 62.915 L 308.000 62.251 310.105 60.317 C 311.263 59.253,314.166 56.824,316.556 54.920 L 320.902 51.457 323.925 51.297 C 326.231 51.175,327.596 50.824,329.684 49.814 C 332.736 48.337,332.806 48.315,333.175 48.684 M368.152 49.053 C 367.807 49.952,368.280 50.947,369.053 50.947 C 369.945 50.947,370.318 49.817,369.680 49.047 C 369.017 48.248,368.460 48.250,368.152 49.053 M32.762 52.106 C 31.253 53.669,29.906 55.327,29.769 55.790 C 29.253 57.535,27.789 64.091,27.789 64.657 C 27.789 65.257,29.487 65.881,30.860 65.786 C 33.761 65.585,38.664 53.117,37.038 50.078 C 36.340 48.774,35.674 49.090,32.762 52.106 M364.205 49.901 C 361.863 52.723,367.351 65.684,370.887 65.684 C 373.536 65.684,373.667 65.159,372.330 59.861 L 371.158 55.213 368.270 52.238 C 365.155 49.029,365.002 48.941,364.205 49.901 M369.295 49.800 C 369.243 50.303,368.665 50.206,368.484 49.663 C 368.392 49.385,368.543 49.234,368.821 49.326 C 369.099 49.419,369.312 49.632,369.295 49.800 M36.974 51.920 C 37.328 56.207,32.491 65.263,29.846 65.263 C 28.130 65.263,28.061 64.810,29.089 60.309 C 30.524 54.030,36.613 47.551,36.974 51.920 M368.090 52.947 C 372.517 57.433,374.319 65.263,370.924 65.263 C 368.252 65.263,363.127 53.956,364.353 50.763 C 364.753 49.721,365.116 49.933,368.090 52.947 M373.069 52.402 C 372.355 53.261,372.818 54.316,373.909 54.316 C 374.619 54.316,374.767 54.095,374.660 53.190 C 374.501 51.855,373.808 51.511,373.069 52.402 M26.247 52.870 C 26.107 53.233,26.195 53.732,26.442 53.979 C 27.097 54.634,28.211 54.059,28.211 53.066 C 28.211 52.027,26.630 51.870,26.247 52.870 M27.789 52.982 C 27.789 53.531,27.289 53.895,26.882 53.644 C 26.446 53.375,26.822 52.632,27.393 52.632 C 27.611 52.632,27.789 52.789,27.789 52.982 M374.316 53.263 C 374.316 53.611,374.126 53.895,373.895 53.895 C 373.663 53.895,373.474 53.611,373.474 53.263 C 373.474 52.916,373.663 52.632,373.895 52.632 C 374.126 52.632,374.316 52.916,374.316 53.263 M162.323 54.000 C 161.508 56.422,159.984 64.145,160.270 64.401 C 160.845 64.917,167.817 66.526,169.478 66.526 C 172.348 66.526,174.106 63.400,172.204 61.678 L 171.355 60.910 172.204 60.007 C 174.291 57.786,172.642 55.707,167.745 54.386 C 163.882 53.344,162.575 53.251,162.323 54.000 M166.972 54.681 C 171.902 55.962,173.596 57.656,171.829 59.537 C 170.737 60.700,170.738 60.803,171.852 62.311 C 172.947 63.791,172.202 65.459,170.225 65.955 C 169.048 66.251,161.398 64.724,160.736 64.062 C 160.409 63.736,161.418 58.917,162.578 55.263 C 163.084 53.671,163.083 53.671,166.972 54.681 M231.487 55.942 C 227.547 56.903,227.607 56.756,228.856 62.342 C 230.192 68.315,230.204 68.325,234.637 67.296 C 242.293 65.521,245.158 62.450,243.096 58.229 C 241.634 55.237,237.620 54.446,231.487 55.942 M241.784 57.637 C 245.245 61.348,242.160 65.285,234.560 66.857 C 230.373 67.723,230.489 67.826,229.262 62.142 C 228.158 57.030,227.988 57.365,232.211 56.332 C 237.006 55.159,239.832 55.544,241.784 57.637 M165.422 56.997 C 164.817 58.326,165.495 59.368,166.964 59.368 C 170.066 59.368,170.139 56.974,167.061 56.201 C 166.100 55.960,165.836 56.089,165.422 56.997 M168.448 57.506 C 169.016 58.190,168.451 58.925,167.344 58.941 C 166.532 58.953,165.340 57.820,165.645 57.327 C 166.080 56.623,167.806 56.733,168.448 57.506 M177.792 57.347 C 176.817 58.527,175.911 67.519,176.708 68.105 C 178.353 69.315,180.211 68.460,180.211 66.494 C 180.211 63.574,182.108 64.050,183.803 67.395 C 184.834 69.430,185.459 69.895,187.167 69.895 C 188.693 69.895,188.782 69.247,187.609 66.685 L 186.531 64.328 187.581 63.502 C 188.797 62.546,188.963 60.870,187.980 59.468 C 186.864 57.874,178.751 56.185,177.792 57.347 M182.526 57.923 C 187.472 58.489,190.008 61.520,186.919 63.173 C 185.848 63.746,185.892 64.450,187.154 66.939 C 188.272 69.146,188.081 69.669,186.318 69.226 C 185.601 69.046,184.931 68.360,184.355 67.213 C 182.338 63.199,179.789 62.689,179.789 66.299 C 179.789 67.763,178.747 68.446,177.429 67.846 C 176.554 67.447,176.399 67.145,176.586 66.205 C 176.712 65.571,177.013 63.553,177.255 61.721 C 177.723 58.176,178.230 57.125,179.323 57.439 C 179.695 57.546,181.137 57.764,182.526 57.923 M233.263 57.646 C 231.525 58.140,232.257 65.263,234.046 65.263 C 235.521 65.263,238.758 63.902,239.373 63.023 C 241.816 59.536,238.104 56.270,233.263 57.646 M220.908 57.969 C 220.752 58.126,220.746 59.452,220.896 60.916 C 221.234 64.217,221.232 64.217,216.571 61.029 C 213.240 58.752,212.685 58.509,211.369 58.752 C 209.366 59.123,209.353 59.176,209.955 64.315 C 210.247 66.805,210.495 69.185,210.506 69.603 C 210.523 70.236,210.829 70.342,212.316 70.235 L 214.105 70.105 213.969 66.800 L 213.832 63.494 217.758 66.220 C 224.637 70.996,225.512 70.725,225.123 63.942 C 224.811 58.481,224.487 57.684,222.582 57.684 C 221.818 57.684,221.065 57.812,220.908 57.969 M238.283 58.774 C 240.580 60.707,239.467 63.410,235.976 64.374 C 233.909 64.945,233.448 64.554,232.806 61.688 C 232.196 58.961,232.430 58.220,233.975 57.988 C 236.464 57.614,237.027 57.717,238.283 58.774 M223.969 58.700 C 224.266 59.058,224.496 61.111,224.547 63.858 L 224.632 68.421 223.472 68.554 C 222.402 68.678,216.136 64.821,215.356 63.559 C 214.289 61.832,213.400 63.233,213.540 66.421 C 213.686 69.733,212.762 71.036,211.303 69.577 C 210.878 69.152,209.713 59.901,210.043 59.571 C 210.912 58.702,213.388 59.552,216.809 61.895 C 221.513 65.117,221.643 65.114,221.384 61.789 C 221.103 58.177,222.324 56.717,223.969 58.700 M196.309 59.474 C 195.202 60.843,191.158 68.668,191.158 69.441 C 191.158 70.668,194.056 70.692,195.158 69.474 C 196.421 68.078,201.754 68.243,202.714 69.708 C 203.567 71.011,206.414 71.082,206.656 69.807 C 206.793 69.080,201.903 59.843,201.077 59.270 C 200.338 58.757,196.765 58.909,196.309 59.474 M180.912 59.649 C 180.225 60.336,180.674 61.932,181.684 62.392 C 183.876 63.391,186.113 60.920,184.028 59.804 C 183.109 59.313,181.337 59.225,180.912 59.649 M200.930 60.105 C 202.102 61.454,206.340 69.514,206.091 69.918 C 205.602 70.710,204.111 70.289,203.026 69.053 C 201.462 67.271,196.350 67.139,194.869 68.842 C 193.949 69.900,191.579 70.344,191.579 69.459 C 191.579 69.063,194.253 64.116,196.295 60.737 C 197.269 59.124,199.781 58.782,200.930 60.105 M183.773 60.357 C 184.794 61.103,184.260 61.895,182.737 61.895 C 181.407 61.895,180.849 61.348,181.213 60.401 C 181.507 59.634,182.755 59.612,183.773 60.357 M164.491 60.912 C 163.757 61.646,164.230 63.568,165.205 63.812 C 168.541 64.650,170.751 62.686,168.047 61.287 C 166.733 60.608,164.980 60.423,164.491 60.912 M167.627 61.709 C 169.055 62.448,169.047 63.298,167.608 63.509 C 166.029 63.740,164.632 63.209,164.632 62.378 C 164.632 60.886,165.612 60.667,167.627 61.709 M197.351 63.895 C 196.555 65.875,197.010 66.526,199.185 66.526 C 201.265 66.526,201.484 66.084,200.428 64.014 C 199.303 61.807,198.206 61.765,197.351 63.895 M200.002 64.426 C 200.646 65.982,200.579 66.062,198.842 65.797 C 197.321 65.565,197.154 65.065,198.134 63.666 C 198.917 62.548,199.287 62.699,200.002 64.426 M92.316 64.207 C 90.707 64.906,90.567 65.561,91.917 66.074 C 96.207 67.705,101.564 65.892,97.487 64.189 C 95.673 63.431,94.088 63.436,92.316 64.207 M303.579 64.096 C 302.912 64.448,302.476 65.088,302.389 65.843 L 302.251 67.035 304.494 66.763 C 309.130 66.201,309.895 66.020,309.895 65.488 C 309.895 64.015,305.549 63.057,303.579 64.096 M97.284 64.642 C 99.789 65.938,98.254 66.456,93.743 65.838 C 91.521 65.533,91.267 65.103,92.947 64.489 C 94.636 63.873,95.880 63.917,97.284 64.642 M308.215 64.574 C 309.999 65.324,309.361 65.672,305.628 65.985 C 303.157 66.192,302.658 66.132,302.818 65.645 C 303.307 64.164,305.980 63.634,308.215 64.574 M88.000 68.210 C 88.000 73.237,112.386 80.456,116.265 76.577 C 117.529 75.313,116.745 74.524,112.038 72.324 C 109.585 71.178,106.509 69.593,105.201 68.800 L 102.824 67.360 95.412 67.214 L 88.000 67.069 88.000 68.210 M298.296 67.615 C 297.558 67.867,296.313 68.469,295.529 68.953 C 294.746 69.437,291.991 70.879,289.407 72.158 C 284.388 74.641,284.017 74.939,284.407 76.168 C 285.962 81.065,313.910 73.154,313.177 68.025 C 313.033 67.023,301.004 66.692,298.296 67.615 M26.382 67.979 C 26.039 68.873,27.506 70.515,28.355 70.189 C 29.169 69.877,29.275 68.601,28.547 67.874 C 27.854 67.181,26.666 67.239,26.382 67.979 M98.438 67.875 C 102.275 67.752,102.398 67.779,104.816 69.248 C 106.173 70.071,108.770 71.422,110.589 72.249 C 112.407 73.076,114.538 74.149,115.325 74.633 L 116.755 75.513 115.805 76.283 C 112.604 78.874,93.660 74.316,89.524 69.959 C 87.567 67.898,88.199 67.222,91.684 67.651 C 93.247 67.843,96.287 67.944,98.438 67.875 M312.658 67.832 C 315.005 71.630,288.517 79.806,285.318 76.271 C 284.405 75.262,284.417 75.253,290.947 71.996 C 293.842 70.552,296.748 68.990,297.405 68.525 C 298.447 67.788,299.041 67.710,302.037 67.915 C 303.927 68.044,306.421 67.999,307.579 67.815 C 310.747 67.312,312.340 67.317,312.658 67.832 M372.728 67.861 C 371.899 68.691,372.080 70.316,373.001 70.316 C 374.007 70.316,374.849 69.315,374.662 68.341 C 374.484 67.420,373.430 67.159,372.728 67.861 M28.219 68.431 C 28.512 68.784,28.638 69.187,28.499 69.325 C 28.068 69.757,26.947 69.113,26.947 68.434 C 26.947 67.610,27.536 67.608,28.219 68.431 M373.857 69.123 C 373.531 69.733,373.264 69.854,372.947 69.537 C 372.630 69.220,372.655 68.900,373.034 68.444 C 373.782 67.543,374.420 68.071,373.857 69.123 M28.826 72.170 C 27.112 73.424,29.838 82.048,32.923 85.134 C 37.439 89.649,38.918 86.908,36.214 79.036 C 34.073 72.804,31.381 70.302,28.826 72.170 M369.013 72.241 C 366.329 73.565,362.806 82.779,363.713 86.105 C 365.131 91.310,372.632 80.889,372.632 73.714 C 372.632 71.736,371.209 71.157,369.013 72.241 M33.978 75.339 C 36.503 79.529,37.772 85.010,36.618 86.737 C 35.509 88.396,30.628 81.905,29.522 77.299 C 28.048 71.160,30.746 69.974,33.978 75.339 M372.084 73.119 C 373.301 76.290,366.890 88.343,364.705 86.993 C 362.847 85.844,365.298 76.731,368.313 73.579 C 369.583 72.251,371.654 71.999,372.084 73.119 M119.263 76.068 C 118.974 76.185,118.737 76.644,118.737 77.088 C 118.737 78.101,120.629 78.215,121.009 77.225 C 121.467 76.031,120.668 75.501,119.263 76.068 M280.160 76.401 C 279.812 77.307,280.338 77.895,281.499 77.895 C 282.597 77.895,282.849 77.123,282.021 76.295 C 281.334 75.608,280.445 75.659,280.160 76.401 M54.651 78.217 C 48.128 83.401,47.892 84.009,51.053 87.505 C 52.268 88.850,53.688 90.459,54.208 91.081 C 55.393 92.498,56.305 92.500,59.067 91.086 C 60.275 90.468,63.632 89.078,66.526 87.998 C 72.594 85.734,73.453 84.758,70.451 83.540 C 66.704 82.020,63.205 80.268,60.813 78.713 C 57.788 76.748,56.618 76.653,54.651 78.217 M340.842 78.364 C 338.760 79.956,335.368 81.692,331.854 82.964 C 327.241 84.635,327.737 85.501,334.736 88.003 C 337.398 88.955,340.606 90.291,341.863 90.972 C 344.899 92.617,345.801 92.565,347.245 90.662 C 347.892 89.810,349.321 88.134,350.421 86.937 C 352.866 84.276,352.878 83.978,350.632 81.844 C 345.080 76.573,343.786 76.113,340.842 78.364 M59.795 78.789 C 61.391 79.945,64.825 81.675,70.000 83.930 C 70.868 84.308,71.579 84.793,71.579 85.007 C 71.579 85.378,66.625 87.586,64.421 88.197 C 63.842 88.358,61.690 89.273,59.639 90.231 L 55.910 91.972 54.586 90.460 C 48.269 83.243,48.383 84.444,53.590 79.941 C 56.882 77.094,57.338 77.009,59.795 78.789 M347.642 80.052 C 352.786 84.649,352.469 83.907,350.268 86.208 C 349.215 87.310,347.737 89.016,346.983 90.000 C 345.353 92.130,345.204 92.147,342.278 90.534 C 341.025 89.844,337.966 88.598,335.480 87.765 C 332.994 86.932,330.531 85.899,330.006 85.470 L 329.053 84.689 330.526 84.076 C 331.337 83.739,333.457 82.860,335.239 82.123 C 337.020 81.387,339.483 80.047,340.712 79.147 C 343.713 76.950,344.250 77.021,347.642 80.052 M121.263 78.316 C 120.684 78.501,119.536 78.672,118.712 78.695 C 113.042 78.854,116.554 84.084,123.378 85.644 C 127.574 86.603,133.629 86.897,137.895 86.350 C 139.979 86.083,143.649 85.697,146.051 85.492 C 148.491 85.283,150.628 84.891,150.893 84.603 C 151.260 84.205,151.184 84.152,150.560 84.373 C 150.115 84.531,149.638 84.477,149.500 84.253 C 149.361 84.029,147.262 83.444,144.834 82.955 C 142.407 82.465,136.915 81.126,132.629 79.979 C 124.881 77.907,123.275 77.671,121.263 78.316 M268.211 80.002 C 263.926 81.151,258.526 82.485,256.211 82.965 C 253.895 83.446,251.835 84.003,251.633 84.202 C 251.431 84.402,251.005 84.466,250.686 84.343 C 250.366 84.221,250.105 84.317,250.105 84.556 C 250.105 84.796,251.100 85.093,252.316 85.215 C 253.532 85.338,257.447 85.754,261.017 86.140 C 273.292 87.466,282.291 85.725,284.620 81.574 C 285.556 79.906,284.831 79.012,282.272 78.680 C 275.947 77.859,276.337 77.822,268.211 80.002 M132.211 80.392 C 136.495 81.533,142.036 82.892,144.525 83.411 C 147.013 83.930,149.001 84.403,148.942 84.462 C 147.574 85.830,126.232 86.132,122.109 84.841 C 116.923 83.218,114.863 79.250,119.133 79.108 C 119.957 79.081,121.200 78.914,121.895 78.737 C 123.963 78.210,124.113 78.234,132.211 80.392 M281.576 79.022 C 287.065 79.651,283.769 83.951,276.771 85.290 C 272.068 86.190,253.410 85.550,252.311 84.451 C 252.241 84.382,253.375 84.096,254.829 83.815 C 257.671 83.267,266.476 81.066,272.632 79.365 C 274.986 78.715,276.979 78.403,277.895 78.543 C 278.705 78.668,280.362 78.883,281.576 79.022 M54.579 81.334 C 51.453 83.650,51.414 84.613,54.337 87.348 C 55.901 88.811,56.653 89.251,57.179 89.011 C 57.573 88.832,59.979 87.981,62.526 87.120 C 67.814 85.333,68.130 84.848,64.842 83.574 C 63.568 83.081,61.556 81.980,60.371 81.128 C 57.671 79.188,57.466 79.195,54.579 81.334 M340.421 81.304 C 339.263 82.215,337.558 83.178,336.632 83.444 C 332.859 84.527,333.087 85.357,337.520 86.676 C 339.167 87.167,341.316 87.927,342.297 88.366 C 344.604 89.399,345.264 89.184,347.337 86.726 C 349.561 84.088,349.514 83.743,346.632 81.480 C 343.713 79.189,343.130 79.172,340.421 81.304 M60.072 81.664 C 61.350 82.579,63.342 83.642,64.499 84.026 C 67.131 84.900,66.967 85.042,61.087 86.983 L 56.279 88.571 54.465 86.496 C 52.313 84.035,52.308 84.070,55.102 81.789 C 57.743 79.634,57.256 79.647,60.072 81.664 M345.974 81.745 C 348.961 84.050,348.940 83.974,347.118 86.016 C 344.732 88.689,344.836 88.677,339.538 86.888 C 334.060 85.039,333.970 84.938,336.867 83.912 C 338.038 83.497,339.886 82.463,340.972 81.613 C 343.455 79.671,343.280 79.667,345.974 81.745 M26.526 83.158 C 25.935 83.870,26.596 85.053,27.585 85.053 C 28.431 85.053,28.660 83.878,27.952 83.170 C 27.163 82.381,27.171 82.381,26.526 83.158 M372.773 83.607 C 372.634 83.970,372.722 84.469,372.968 84.716 C 373.623 85.371,374.737 84.796,374.737 83.803 C 374.737 82.764,373.157 82.607,372.773 83.607 M374.316 83.719 C 374.316 84.268,373.815 84.632,373.408 84.381 C 372.973 84.111,373.348 83.368,373.920 83.368 C 374.137 83.368,374.316 83.526,374.316 83.719 M154.916 86.997 C 154.354 87.603,152.540 88.721,150.884 89.480 C 147.759 90.914,146.811 92.085,147.806 93.283 C 148.687 94.344,151.260 93.959,157.725 91.796 C 161.176 90.642,164.311 89.695,164.690 89.691 C 165.070 89.687,165.827 89.323,166.373 88.880 L 167.366 88.077 166.314 87.666 C 164.956 87.136,158.428 85.890,157.021 85.893 C 156.393 85.894,155.506 86.359,154.916 86.997 M238.370 86.762 C 232.829 87.943,232.727 88.686,237.917 90.086 C 239.787 90.590,243.114 91.654,245.311 92.449 C 253.896 95.557,257.435 92.694,249.486 89.072 C 247.783 88.295,246.176 87.263,245.916 86.777 C 245.330 85.682,243.455 85.678,238.370 86.762 M368.508 86.397 C 367.714 87.192,367.889 88.421,368.797 88.421 C 369.816 88.421,370.307 87.179,369.576 86.449 C 369.139 86.011,368.905 86.000,368.508 86.397 M31.229 87.229 C 31.322 87.884,31.649 88.211,32.211 88.211 C 33.464 88.211,33.339 86.567,32.072 86.387 C 31.255 86.272,31.114 86.413,31.229 87.229 M162.000 87.239 C 166.039 88.086,167.400 89.263,164.341 89.263 C 164.037 89.263,160.947 90.211,157.474 91.368 C 150.918 93.554,149.059 93.865,148.267 92.911 C 147.629 92.141,148.930 90.994,152.421 89.250 C 153.926 88.498,155.405 87.530,155.708 87.099 C 156.401 86.113,156.660 86.118,162.000 87.239 M245.472 87.155 C 245.719 87.617,247.296 88.638,248.976 89.424 C 256.058 92.740,253.701 94.906,245.999 92.160 C 243.973 91.438,240.658 90.371,238.632 89.789 C 234.033 88.468,234.047 88.305,238.842 87.250 C 243.944 86.128,244.915 86.114,245.472 87.155 M32.453 87.274 C 32.401 87.777,31.823 87.680,31.642 87.137 C 31.549 86.859,31.701 86.707,31.979 86.800 C 32.257 86.893,32.470 87.106,32.453 87.274 M32.084 90.611 C 31.396 91.299,31.369 112.341,32.055 113.846 C 33.125 116.195,37.469 116.211,39.001 113.871 C 42.479 108.564,35.981 86.713,32.084 90.611 M366.213 90.938 C 364.420 92.348,362.653 97.830,361.487 105.593 C 360.455 112.470,361.758 115.579,365.674 115.579 C 369.324 115.579,369.292 115.699,369.164 102.139 C 369.040 88.999,368.978 88.763,366.213 90.938 M34.610 91.684 C 37.256 94.512,40.258 106.774,39.411 111.291 C 38.789 114.605,35.208 116.130,32.975 114.032 C 32.005 113.121,32.000 113.061,32.000 102.327 C 32.000 89.973,32.210 89.119,34.610 91.684 M368.748 102.140 C 368.880 114.959,368.882 114.947,365.500 114.947 C 361.899 114.947,360.879 111.816,362.114 104.550 C 363.477 96.535,364.884 92.545,366.829 91.183 C 368.562 89.969,368.627 90.342,368.748 102.140 M177.063 91.779 C 170.894 93.476,172.057 95.539,179.672 96.408 C 184.135 96.917,194.009 95.494,194.790 94.229 C 196.182 91.978,182.975 90.152,177.063 91.779 M210.619 91.970 C 204.741 93.425,204.737 94.190,210.602 95.589 C 221.937 98.292,234.440 94.602,223.539 91.771 C 219.468 90.714,215.442 90.776,210.619 91.970 M188.288 92.009 C 192.160 92.815,194.105 93.441,194.105 93.882 C 194.105 95.409,179.153 96.478,175.474 95.214 C 169.622 93.203,180.706 90.432,188.288 92.009 M223.208 92.196 C 228.601 93.691,228.489 94.934,222.899 95.651 C 217.764 96.310,208.390 95.292,207.023 93.927 C 206.717 93.622,211.470 92.146,214.316 91.662 C 216.910 91.221,220.458 91.434,223.208 92.196 M375.239 105.127 C 372.767 107.725,371.916 111.580,373.814 111.578 C 375.537 111.576,378.688 105.244,377.538 104.095 C 376.919 103.475,376.729 103.561,375.239 105.127 M23.354 104.445 C 22.922 105.144,23.527 106.983,24.892 109.120 C 26.660 111.890,28.211 112.442,28.211 110.302 C 28.211 107.006,24.521 102.556,23.354 104.445 M26.988 107.878 C 27.759 109.380,28.058 111.158,27.541 111.158 C 26.627 111.158,23.405 105.902,23.757 104.984 C 24.107 104.073,25.827 105.614,26.988 107.878 M377.384 104.682 C 377.747 105.045,375.436 109.516,374.404 110.448 C 372.473 112.192,373.178 108.430,375.254 105.911 C 376.479 104.425,376.890 104.188,377.384 104.682 M86.413 115.179 C 77.480 117.584,72.932 127.494,78.434 132.564 C 80.293 134.278,81.076 133.683,80.912 130.681 C 80.483 122.847,87.535 118.612,98.673 120.013 C 103.596 120.633,103.551 120.577,101.466 123.488 C 98.626 127.454,98.427 129.098,98.593 147.158 C 98.751 164.271,98.663 164.940,95.874 167.930 C 90.310 173.896,78.105 169.001,78.105 160.804 C 78.105 156.551,79.573 155.484,84.111 156.440 C 88.152 157.290,90.312 152.654,87.218 149.770 C 82.000 144.906,74.526 150.270,74.526 158.879 C 74.526 174.416,96.779 180.385,104.647 166.959 C 108.020 161.204,108.770 155.774,108.163 141.529 C 107.367 122.845,107.707 121.336,112.842 120.787 C 116.190 120.430,119.632 118.999,121.225 117.303 C 122.823 115.603,122.170 115.423,115.260 115.662 C 110.937 115.811,106.557 115.662,101.843 115.205 C 93.423 114.389,89.373 114.382,86.413 115.179 M99.579 115.590 C 106.944 116.518,114.271 116.794,117.881 116.280 C 121.315 115.792,121.658 115.859,120.830 116.856 C 119.541 118.410,116.580 119.678,113.409 120.033 C 107.113 120.739,107.254 120.066,107.749 147.158 C 107.935 157.359,107.504 160.216,105.045 165.068 C 97.859 179.249,76.066 175.337,75.037 159.680 C 74.522 151.852,81.453 145.657,86.229 149.676 C 90.171 152.992,87.768 157.240,82.842 155.664 C 76.492 153.634,75.447 164.562,81.602 168.625 C 86.445 171.821,93.229 171.702,96.295 168.366 C 99.088 165.328,99.172 164.688,99.016 147.625 C 98.848 129.199,98.999 127.903,101.761 124.152 C 104.759 120.079,104.094 119.574,95.579 119.447 C 85.102 119.291,80.431 122.738,80.423 130.632 C 80.421 133.367,80.186 133.535,78.657 131.895 C 73.541 126.410,78.590 117.188,87.693 115.391 C 90.485 114.840,94.102 114.901,99.579 115.590 M30.555 125.559 C 30.393 127.249,29.685 131.947,28.983 136.000 C 28.280 140.053,27.264 145.926,26.724 149.053 C 26.184 152.179,25.167 158.053,24.464 162.105 C 22.670 172.450,22.176 178.162,22.498 184.842 C 23.178 198.914,24.065 203.963,25.461 201.705 C 25.729 201.271,29.511 182.696,30.524 176.842 C 33.909 157.271,34.541 123.190,31.530 122.616 C 30.974 122.510,30.796 123.049,30.555 125.559 M368.840 122.601 C 368.840 122.676,368.464 125.579,368.007 129.053 C 366.212 142.679,367.986 164.487,372.887 189.053 C 375.624 202.767,375.447 202.105,376.366 202.105 C 378.804 202.105,379.390 177.526,377.240 165.474 C 376.764 162.811,375.810 157.316,375.118 153.263 C 374.427 149.211,373.294 142.806,372.600 139.030 C 371.906 135.255,371.102 130.046,370.813 127.454 C 370.382 123.593,370.157 122.718,369.565 122.604 C 369.167 122.527,368.841 122.526,368.840 122.601 M32.472 127.474 C 33.900 137.570,32.642 162.055,29.881 177.895 C 28.405 186.368,25.312 200.961,24.908 201.366 C 23.690 202.584,22.347 182.195,23.126 174.316 C 23.560 169.924,24.376 164.961,28.833 139.579 C 29.606 135.179,30.478 129.732,30.771 127.474 C 31.064 125.216,31.436 123.368,31.598 123.368 C 31.759 123.368,32.153 125.216,32.472 127.474 M370.477 128.211 C 370.748 130.526,371.620 136.116,372.416 140.632 C 373.212 145.147,374.717 153.674,375.761 159.579 C 378.586 175.566,378.959 185.321,377.218 197.684 C 376.563 202.335,376.232 202.364,375.195 197.860 C 369.431 172.825,366.284 141.354,368.335 129.263 C 368.630 127.526,368.972 125.465,369.096 124.682 C 369.455 122.416,369.946 123.669,370.477 128.211 M258.667 136.974 C 255.577 138.667,253.856 145.187,255.368 149.474 C 256.237 151.936,256.264 151.825,253.821 155.923 C 250.855 160.898,250.112 160.779,248.849 155.124 C 248.464 153.401,247.795 152.336,245.412 149.650 C 240.062 143.623,238.982 141.999,238.742 139.619 C 238.537 137.577,238.463 137.468,237.207 137.345 C 234.365 137.069,233.232 140.637,234.116 147.074 C 234.732 151.565,234.853 151.207,229.973 159.368 C 224.538 168.459,218.702 172.196,215.404 168.698 C 212.932 166.078,212.708 162.947,214.992 162.947 C 221.151 162.947,224.316 158.272,223.916 149.763 C 223.634 143.751,221.731 141.058,216.860 139.781 C 208.562 137.605,203.178 144.658,203.257 157.600 L 203.295 163.832 201.712 165.495 C 199.934 167.364,199.268 167.512,197.836 166.354 C 196.855 165.561,196.839 165.422,196.627 155.722 C 196.300 140.775,193.828 137.526,185.924 141.652 L 183.005 143.175 181.632 141.844 C 179.546 139.822,176.524 139.622,174.756 141.390 L 173.474 142.672 173.455 150.810 C 173.430 161.855,172.474 165.326,169.132 166.501 C 166.413 167.457,166.132 166.401,165.895 154.334 C 165.697 144.312,165.629 143.563,164.802 142.451 C 162.830 139.798,160.409 139.666,155.923 141.965 L 153.185 143.368 152.277 142.265 C 149.529 138.925,144.727 139.842,143.594 143.922 C 143.357 144.775,143.162 148.354,143.160 151.874 C 143.156 162.156,142.696 163.180,136.096 167.600 C 131.087 170.953,127.996 170.779,126.303 167.049 C 124.625 163.353,125.231 162.158,129.021 161.688 C 140.661 160.245,140.013 140.395,128.296 139.487 C 119.597 138.813,114.053 147.028,114.811 159.470 L 115.071 163.731 113.105 166.813 C 112.024 168.508,110.726 170.418,110.221 171.057 C 109.381 172.121,109.360 172.277,109.973 172.890 C 111.035 173.952,112.861 173.288,114.249 171.336 C 116.618 168.004,117.171 167.938,119.921 170.655 C 124.877 175.551,131.521 175.567,138.580 170.700 C 141.676 168.566,142.737 168.593,142.737 170.808 C 142.737 173.690,147.653 175.057,150.187 172.880 L 151.368 171.865 151.583 162.038 C 151.807 151.827,151.907 151.248,153.810 149.158 C 156.703 145.982,157.474 148.093,157.474 159.187 C 157.474 165.133,157.654 169.135,157.969 170.187 C 159.414 175.010,165.937 175.357,170.617 170.860 C 172.493 169.058,172.905 169.139,173.663 171.458 C 174.430 173.803,178.506 174.602,180.874 172.871 C 181.623 172.324,181.702 171.507,181.918 162.006 C 182.170 150.961,182.490 149.469,184.880 148.190 C 187.427 146.827,187.750 148.128,187.889 160.286 C 187.993 169.398,188.058 170.125,188.872 171.233 C 191.641 175.005,197.735 174.675,202.340 170.504 C 205.130 167.977,204.637 167.958,207.316 170.702 C 214.174 177.726,225.521 173.474,233.182 161.008 C 236.885 154.981,237.006 154.899,238.894 157.104 C 241.272 159.883,243.003 165.202,242.361 167.759 C 241.675 170.494,237.895 170.706,237.895 168.009 C 237.895 164.577,233.807 164.546,233.121 167.972 C 232.412 171.520,234.585 173.642,238.947 173.659 C 243.937 173.679,248.871 169.755,254.765 161.077 C 258.460 155.638,258.398 155.671,260.564 157.925 C 265.920 163.500,266.272 170.917,261.182 170.941 C 259.501 170.949,258.526 169.684,258.526 167.493 C 258.526 166.155,258.363 165.870,257.471 165.646 C 253.830 164.732,252.689 171.395,256.127 173.491 C 260.330 176.054,266.238 173.435,273.662 165.719 C 275.645 163.657,276.009 163.784,277.490 167.053 C 281.731 176.410,291.166 177.219,299.837 168.968 C 302.506 166.428,303.006 166.415,304.371 168.843 C 306.498 172.627,311.024 175.019,315.321 174.629 C 320.396 174.169,325.053 170.896,325.053 167.788 C 325.053 165.910,323.390 165.670,322.266 167.386 C 318.935 172.469,312.759 170.759,312.317 164.632 L 312.211 163.158 315.579 162.927 C 320.223 162.609,321.651 161.664,323.373 157.771 C 326.619 150.433,323.518 141.762,317.097 140.221 C 309.866 138.486,303.664 144.853,302.547 155.158 C 301.984 160.349,301.830 160.822,299.795 163.613 C 296.224 168.511,291.593 171.245,288.815 170.094 C 286.267 169.039,283.614 163.488,285.579 163.325 C 285.868 163.300,287.337 163.253,288.842 163.219 C 293.128 163.123,294.758 161.510,296.213 155.924 C 298.840 145.835,293.130 137.994,284.897 140.387 C 279.672 141.906,276.821 146.434,275.771 154.883 C 274.953 161.466,272.397 163.255,271.169 158.105 C 270.275 154.357,269.273 152.441,266.154 148.516 C 262.995 144.541,261.786 142.236,261.494 139.628 C 261.218 137.165,260.150 136.162,258.667 136.974 M260.555 137.802 C 260.801 138.099,260.992 139.108,260.979 140.045 C 260.949 142.222,261.707 143.665,265.602 148.842 C 269.109 153.504,270.532 156.266,270.963 159.250 C 271.736 164.606,275.254 161.846,276.184 155.154 C 277.765 143.790,283.780 138.153,291.073 141.200 C 299.927 144.900,297.108 163.813,287.861 162.749 C 284.534 162.366,283.863 163.343,285.028 166.873 C 287.956 175.745,301.602 168.264,302.744 157.161 C 303.883 146.091,308.026 140.632,315.288 140.632 C 323.227 140.632,327.104 152.030,321.702 159.488 C 320.014 161.817,319.107 162.236,315.158 162.506 L 311.789 162.737 311.872 164.557 C 312.062 168.725,313.868 170.942,317.075 170.946 C 318.766 170.948,322.189 168.997,322.932 167.607 C 323.587 166.383,324.632 166.495,324.632 167.788 C 324.632 170.388,319.692 173.727,315.151 174.195 C 311.379 174.585,306.646 171.915,304.821 168.368 C 304.105 166.975,303.292 166.316,302.290 166.316 C 302.082 166.316,300.709 167.405,299.239 168.737 C 290.406 176.738,282.201 175.860,277.793 166.441 C 276.303 163.256,275.418 163.034,273.240 165.298 C 266.156 172.661,260.765 175.292,256.878 173.282 C 253.696 171.636,253.708 166.316,256.894 166.316 C 258.043 166.316,258.105 166.411,258.105 168.145 C 258.105 170.865,259.988 172.206,262.598 171.345 C 266.374 170.099,266.156 164.255,262.129 158.769 C 259.088 154.626,258.033 154.888,254.166 160.743 C 247.501 170.837,241.219 174.873,235.714 172.599 C 234.345 172.034,233.099 169.617,233.499 168.305 C 234.465 165.133,237.474 165.114,237.474 168.280 C 237.474 170.613,240.082 171.325,241.914 169.493 C 243.853 167.554,242.765 161.178,239.845 157.376 C 237.165 153.886,236.614 154.141,232.594 160.733 C 225.155 172.935,214.372 177.076,207.737 170.280 C 205.039 167.518,204.715 167.495,202.157 169.887 C 197.433 174.306,191.300 174.404,188.990 170.098 C 188.298 168.808,188.210 167.580,188.204 159.164 C 188.197 148.554,188.016 147.665,185.819 147.450 C 182.546 147.130,181.480 150.993,181.476 163.184 C 181.474 170.677,181.417 171.271,180.615 172.131 C 178.794 174.086,173.895 172.919,173.895 170.531 C 173.895 168.704,171.744 168.299,170.678 169.925 C 168.385 173.424,162.230 174.616,159.793 172.033 C 157.989 170.120,157.895 169.445,157.895 158.474 C 157.895 148.111,157.603 146.914,155.242 147.590 C 152.007 148.516,151.158 151.677,151.158 162.790 L 151.158 171.012 149.927 172.243 C 147.535 174.635,144.134 173.680,143.062 170.316 C 142.324 167.998,141.397 167.998,138.106 170.315 C 131.336 175.082,125.354 175.007,120.154 170.089 C 117.381 167.467,116.956 167.481,114.341 170.284 C 111.079 173.783,109.021 173.618,111.708 170.074 C 115.242 165.413,115.388 164.944,115.309 158.479 C 115.180 147.947,118.648 141.584,125.267 140.210 C 132.147 138.781,136.626 143.112,136.588 151.158 C 136.558 157.494,134.133 160.581,128.651 161.261 C 124.662 161.755,124.252 162.552,125.737 166.911 C 127.444 171.921,131.797 171.722,138.916 166.310 C 143.163 163.081,143.283 162.729,143.572 152.632 C 143.827 143.762,143.977 143.057,145.949 141.506 C 147.760 140.082,151.167 140.776,151.776 142.693 C 152.228 144.120,153.276 144.065,156.135 142.466 C 163.552 138.318,165.464 140.666,165.492 153.958 C 165.517 165.847,165.810 167.136,168.494 167.151 C 172.402 167.174,173.616 163.739,173.809 152.113 L 173.965 142.753 175.278 141.648 C 177.022 140.180,179.312 140.424,181.229 142.283 C 182.890 143.893,182.855 143.894,186.287 142.105 C 193.656 138.264,195.936 141.389,196.118 155.579 C 196.255 166.335,196.269 166.436,197.694 167.086 C 199.485 167.902,200.440 167.659,202.143 165.956 L 203.766 164.333 203.680 158.272 C 203.481 144.257,210.327 136.617,218.986 141.191 C 226.373 145.092,224.452 162.105,216.625 162.105 C 212.372 162.105,211.561 165.491,214.951 169.086 C 219.191 173.581,226.160 168.228,233.135 155.116 L 235.072 151.474 234.530 146.765 C 233.936 141.609,234.223 139.733,235.830 138.279 C 237.074 137.154,238.039 137.949,238.390 140.388 C 238.740 142.824,238.923 143.101,243.954 148.842 C 246.851 152.148,248.133 153.956,248.432 155.158 C 249.663 160.094,250.056 160.737,251.505 160.181 C 252.129 159.941,255.772 154.003,256.203 152.524 C 256.355 152.001,256.164 150.488,255.778 149.160 C 254.195 143.716,257.985 134.706,260.555 137.802 M126.823 143.169 C 123.126 144.687,123.489 157.563,127.267 158.910 C 130.276 159.982,132.275 157.364,132.543 152.000 C 132.877 145.339,130.495 141.661,126.823 143.169 M213.519 143.895 C 211.476 145.945,210.726 153.359,212.176 157.172 C 213.613 160.953,218.264 160.213,219.316 156.035 C 221.323 148.062,217.449 139.949,213.519 143.895 M287.579 143.034 C 281.518 145.250,283.085 161.427,289.158 159.344 C 293.136 157.980,293.749 145.860,289.957 143.548 C 288.540 142.684,288.538 142.684,287.579 143.034 M217.261 144.355 C 221.479 148.572,218.852 161.686,214.356 158.860 C 210.977 156.735,211.176 145.625,214.629 143.614 C 215.721 142.978,215.950 143.043,217.261 144.355 M313.270 144.349 C 310.400 147.219,310.252 158.657,313.071 159.738 C 315.607 160.711,318.342 159.242,319.316 156.384 C 321.933 148.703,317.581 140.039,313.270 144.349 M130.425 144.526 C 133.296 147.591,132.664 157.342,129.544 158.125 C 126.527 158.882,124.948 157.168,124.705 152.875 C 124.292 145.563,127.293 141.183,130.425 144.526 M289.431 143.831 C 293.144 145.256,292.832 157.092,289.035 158.821 C 286.567 159.946,284.612 157.388,284.306 152.632 C 283.930 146.766,286.331 142.642,289.431 143.831 M317.564 144.733 C 320.775 147.551,319.971 157.464,316.399 159.091 C 312.993 160.643,311.576 158.815,311.588 152.886 C 311.604 145.424,314.245 141.820,317.564 144.733 M32.916 207.053 C 31.588 208.188,30.587 210.916,31.385 211.223 C 32.805 211.767,35.687 208.479,35.110 206.974 C 34.779 206.112,33.983 206.140,32.916 207.053 M212.421 207.001 C 211.719 207.549,210.983 207.600,208.000 207.304 C 193.317 205.851,186.449 210.096,187.562 219.937 C 188.334 226.756,191.785 229.664,200.340 230.704 C 208.221 231.663,211.318 234.520,208.834 238.539 C 205.883 243.314,197.871 241.908,192.181 235.619 C 187.859 230.841,187.585 231.023,187.556 238.683 C 187.527 246.166,187.999 246.947,191.109 244.560 C 192.446 243.535,193.463 243.587,196.551 244.842 C 198.787 245.751,199.794 245.895,203.915 245.895 C 214.086 245.895,218.108 242.740,218.103 234.767 C 218.097 226.772,216.235 224.974,205.430 222.535 C 198.613 220.996,196.211 219.343,196.211 216.191 C 196.211 210.295,207.237 210.474,212.278 216.453 C 215.817 220.650,216.928 219.522,216.247 212.421 C 215.638 206.062,214.921 205.047,212.421 207.001 M224.514 206.812 C 223.682 207.644,223.916 208.356,225.251 209.046 C 227.533 210.227,227.568 210.455,227.715 225.417 C 227.865 240.648,227.807 241.084,225.424 242.557 C 221.701 244.858,224.023 245.895,232.897 245.895 C 241.536 245.895,243.036 245.185,239.727 242.661 C 237.484 240.950,237.053 239.528,237.053 233.843 L 237.053 228.922 238.755 227.303 C 241.411 224.777,241.325 224.703,247.499 234.781 C 250.468 239.628,250.634 240.631,248.809 242.710 C 246.307 245.560,246.635 245.684,256.632 245.684 C 266.956 245.684,267.190 245.570,263.860 242.161 C 261.977 240.234,249.684 220.586,249.684 219.505 C 249.684 218.802,257.222 212.821,261.347 210.250 C 266.637 206.953,266.090 206.553,256.096 206.412 C 246.904 206.282,246.366 206.469,248.735 208.975 C 250.368 210.703,250.410 210.630,245.169 215.235 C 237.554 221.927,237.669 221.905,237.278 216.680 C 236.941 212.188,237.361 210.843,239.596 209.251 C 240.476 208.624,240.848 208.042,240.760 207.428 C 240.605 206.337,225.560 205.767,224.514 206.812 M267.964 206.890 C 267.778 207.374,268.367 208.211,269.914 209.663 L 272.130 211.744 271.857 215.872 C 271.706 218.142,271.582 224.481,271.581 229.958 L 271.579 239.915 270.105 242.105 C 269.295 243.310,268.632 244.560,268.632 244.884 C 268.632 245.708,295.935 245.771,296.189 244.947 C 296.278 244.658,296.461 242.783,296.595 240.782 C 296.886 236.453,296.585 236.135,293.904 237.936 C 291.511 239.543,282.083 239.847,281.278 238.343 C 280.656 237.181,280.713 228.929,281.347 228.295 C 282.237 227.405,288.410 227.648,289.895 228.632 C 292.387 230.282,292.632 229.977,292.632 225.214 L 292.632 220.954 291.474 221.272 C 289.325 221.861,282.095 221.990,281.446 221.451 C 280.552 220.709,280.586 212.947,281.486 212.200 C 283.430 210.587,291.137 212.350,293.398 214.926 C 295.713 217.562,296.164 217.078,295.815 212.334 C 295.365 206.199,296.496 206.737,284.047 206.737 C 278.184 206.737,272.226 206.616,270.808 206.467 C 268.643 206.241,268.187 206.309,267.964 206.890 M366.175 206.596 C 365.205 207.567,367.700 211.368,369.307 211.368 C 370.224 211.368,370.281 211.045,369.656 209.396 C 368.844 207.252,367.002 205.770,366.175 206.596 M34.333 208.368 C 34.057 209.235,31.697 211.205,31.349 210.858 C 31.249 210.758,31.746 209.764,32.453 208.649 C 33.743 206.615,34.946 206.434,34.333 208.368 M59.022 207.440 C 59.097 207.826,59.711 208.449,60.387 208.824 C 62.504 209.996,63.091 211.325,65.705 220.842 C 71.213 240.896,71.281 241.280,69.620 243.014 C 67.540 245.185,68.501 245.511,76.581 245.378 C 84.413 245.249,85.058 244.949,82.729 242.519 L 81.592 241.331 84.643 232.139 C 86.321 227.084,87.763 222.868,87.847 222.772 C 88.694 221.801,94.066 240.307,93.284 241.500 C 92.915 242.065,92.434 242.526,92.216 242.526 C 91.998 242.526,91.599 242.938,91.330 243.440 C 90.406 245.166,91.630 245.474,99.414 245.474 C 108.577 245.474,109.203 245.211,106.316 242.584 C 105.132 241.506,104.842 240.932,104.842 239.663 C 104.842 237.448,113.822 211.347,114.866 210.528 C 115.310 210.180,116.207 209.505,116.860 209.029 C 119.483 207.116,118.276 206.704,110.436 206.832 C 102.369 206.964,101.841 207.236,104.601 209.838 C 106.513 211.642,106.502 212.125,104.404 218.688 C 100.821 229.897,100.895 229.884,97.892 219.738 C 95.667 212.220,95.712 211.141,98.320 209.432 C 99.031 208.967,99.367 208.409,99.284 207.832 C 99.161 206.968,98.944 206.945,90.000 206.834 L 80.842 206.720 80.842 207.646 C 80.842 208.166,81.488 209.163,82.316 209.922 C 84.242 211.686,84.217 212.076,81.645 220.295 C 78.353 230.817,78.633 230.814,75.750 220.366 C 73.239 211.268,73.148 210.312,74.666 209.007 C 77.110 206.904,76.569 206.737,67.338 206.737 C 59.671 206.737,58.898 206.802,59.022 207.440 M120.988 207.384 C 120.822 207.818,121.255 208.529,122.227 209.419 C 124.246 211.268,124.274 211.538,124.127 227.715 L 124.000 241.745 122.563 242.918 C 119.822 245.154,120.635 245.474,129.053 245.474 C 137.654 245.474,138.115 245.256,135.209 242.574 L 133.474 240.971 133.474 234.675 C 133.474 226.903,133.072 227.368,139.789 227.368 C 146.507 227.368,146.105 226.903,146.105 234.675 L 146.105 240.971 144.369 242.574 C 141.412 245.304,141.887 245.512,150.798 245.378 C 159.211 245.252,159.730 245.073,157.533 243.059 C 155.453 241.151,155.368 240.496,155.368 226.275 C 155.368 211.657,155.510 210.705,157.875 209.359 C 158.702 208.888,159.154 208.297,159.155 207.684 L 159.158 206.737 151.203 206.737 C 143.115 206.737,141.614 207.054,143.278 208.412 C 143.559 208.641,144.405 209.323,145.158 209.926 L 146.526 211.022 146.526 215.953 C 146.526 222.168,146.817 221.895,140.211 221.895 C 133.603 221.895,133.895 222.169,133.895 215.946 C 133.895 210.761,134.039 210.313,136.058 209.232 C 136.584 208.951,136.845 208.445,136.762 207.866 C 136.587 206.633,121.454 206.170,120.988 207.384 M167.263 207.045 C 165.293 207.223,164.678 208.533,166.320 209.054 C 168.425 209.722,168.622 211.024,168.759 225.136 C 168.898 239.445,168.758 240.670,166.729 242.889 C 164.665 245.148,164.942 245.251,173.413 245.378 C 181.361 245.497,183.333 245.026,180.837 243.606 C 180.404 243.359,179.612 242.740,179.077 242.230 L 178.105 241.301 178.105 226.481 L 178.105 211.660 179.789 210.105 C 182.238 207.845,182.046 207.334,178.632 207.011 C 175.740 206.738,170.498 206.754,167.263 207.045 M215.018 207.263 C 215.424 207.908,216.360 216.847,216.098 217.579 C 215.722 218.630,214.489 218.061,212.743 216.034 C 207.127 209.513,195.789 209.788,195.789 216.445 C 195.789 220.055,197.806 221.312,206.879 223.363 C 215.725 225.361,217.963 227.833,217.626 235.232 C 217.427 239.616,216.047 242.027,212.632 243.955 C 209.235 245.873,201.320 246.127,196.897 244.459 C 193.374 243.131,191.563 243.065,190.510 244.229 C 188.522 246.426,188.001 245.350,187.988 239.020 C 187.973 231.880,187.826 231.963,192.316 236.582 C 198.557 243.002,207.807 243.794,209.696 238.071 C 211.185 233.557,208.499 231.256,200.632 230.308 C 192.018 229.271,188.080 225.649,188.050 218.737 C 188.010 209.707,193.878 206.468,208.000 207.725 C 211.364 208.024,212.134 207.976,212.842 207.422 C 213.870 206.618,214.580 206.566,215.018 207.263 M240.242 207.209 C 240.406 207.475,239.954 208.133,239.206 208.719 C 236.871 210.547,236.519 211.741,236.856 216.689 C 237.278 222.877,237.445 222.863,245.221 216.005 C 250.940 210.959,251.200 210.487,249.278 208.646 C 247.419 206.865,247.843 206.737,255.569 206.737 C 265.128 206.737,265.594 206.952,261.424 209.436 C 257.322 211.880,249.717 218.037,249.441 219.139 C 249.132 220.368,249.322 220.728,256.024 231.653 C 259.054 236.591,262.395 241.513,263.448 242.591 C 266.180 245.388,265.983 245.475,256.923 245.467 C 247.712 245.460,247.297 245.333,249.236 243.124 C 251.366 240.698,251.009 239.161,246.723 232.307 C 241.618 224.143,241.254 223.910,238.266 226.898 L 236.632 228.533 236.634 233.529 C 236.637 239.832,237.030 241.288,239.203 243.034 C 241.813 245.131,240.905 245.474,232.734 245.474 C 224.743 245.474,222.578 244.764,225.677 243.162 C 228.130 241.893,228.212 241.359,228.192 226.863 C 228.171 211.704,228.019 210.404,226.083 208.824 C 225.286 208.173,224.839 207.504,225.013 207.222 C 225.427 206.553,239.829 206.541,240.242 207.209 M294.600 207.718 C 294.872 207.989,295.225 210.011,295.384 212.211 L 295.673 216.211 293.603 214.202 C 290.994 211.671,282.660 210.140,280.926 211.874 C 280.155 212.645,280.238 221.219,281.023 221.870 C 281.705 222.436,290.232 222.325,291.474 221.734 C 292.147 221.414,292.211 221.713,292.211 225.218 C 292.211 229.387,292.176 229.442,290.316 228.211 C 288.467 226.986,281.508 226.966,280.857 228.183 C 280.232 229.351,280.290 238.437,280.926 239.074 C 282.013 240.160,292.288 239.732,294.065 238.526 C 296.286 237.019,296.381 237.121,296.122 240.737 C 295.786 245.406,296.915 245.053,282.334 245.053 C 268.096 245.053,268.600 245.146,270.441 242.855 L 271.789 241.178 272.050 226.589 C 272.335 210.566,272.360 210.772,269.933 208.822 C 268.999 208.072,268.306 207.343,268.393 207.203 C 268.705 206.698,294.077 207.197,294.600 207.718 M298.947 207.508 C 298.947 207.938,299.647 208.733,300.526 209.301 C 302.183 210.372,304.920 214.149,310.735 223.392 L 314.105 228.748 314.105 234.971 L 314.105 241.195 312.632 242.585 C 309.792 245.263,310.205 245.474,318.281 245.474 C 327.416 245.474,328.389 245.092,325.285 242.725 C 322.904 240.909,321.956 232.026,323.781 228.639 C 326.023 224.479,336.707 210.398,338.198 209.637 C 339.464 208.991,339.812 208.585,339.711 207.873 C 339.583 206.973,339.403 206.944,333.360 206.831 C 326.339 206.699,325.775 206.946,327.747 209.289 C 329.221 211.041,329.208 211.093,326.284 215.395 C 323.242 219.869,321.372 221.910,320.589 221.610 C 320.139 221.437,314.613 213.646,313.092 211.041 C 312.896 210.705,313.282 210.032,314.118 209.251 C 316.582 206.950,315.975 206.737,306.961 206.737 C 299.472 206.737,298.947 206.787,298.947 207.508 M369.094 209.344 C 369.417 209.968,369.511 210.583,369.304 210.712 C 368.924 210.946,366.316 208.260,366.316 207.634 C 366.316 206.245,368.040 207.306,369.094 209.344 M74.306 208.432 C 72.679 210.130,72.759 211.055,75.355 220.606 C 78.353 231.637,78.468 231.647,81.804 221.158 C 84.677 212.121,84.739 211.335,82.737 209.446 C 80.355 207.200,80.484 207.157,89.579 207.164 C 99.154 207.172,99.682 207.312,97.527 209.272 C 95.017 211.556,95.115 212.400,99.626 227.474 C 99.866 228.278,101.259 228.477,101.697 227.769 C 102.493 226.481,106.526 213.573,106.526 212.313 C 106.526 211.166,106.191 210.520,105.026 209.421 C 102.822 207.343,103.273 207.158,110.551 207.158 C 117.731 207.158,118.228 207.377,115.431 209.309 C 113.874 210.384,113.744 210.692,109.131 224.265 C 103.834 239.851,103.624 241.004,105.734 242.931 C 107.812 244.829,107.187 245.053,99.799 245.053 C 91.212 245.053,90.520 244.803,93.096 242.636 C 94.727 241.263,94.708 241.114,91.649 231.450 C 90.388 227.468,89.235 223.677,89.085 223.025 C 88.464 220.325,87.553 221.987,84.397 231.579 C 81.189 241.328,81.080 242.089,82.686 243.442 C 84.191 244.709,82.841 245.039,76.130 245.046 C 69.511 245.053,68.758 244.816,70.272 243.205 C 71.635 241.754,71.438 240.505,67.551 225.938 C 63.575 211.037,63.140 209.856,61.174 208.632 C 58.973 207.261,59.424 207.158,67.658 207.158 L 75.526 207.158 74.306 208.432 M136.250 207.643 C 136.415 207.910,136.191 208.386,135.749 208.703 C 133.409 210.385,133.474 210.177,133.474 215.981 C 133.474 222.639,133.115 222.316,140.520 222.316 C 147.280 222.316,146.947 222.638,146.947 216.099 C 146.947 210.362,146.735 209.626,144.858 208.849 C 141.746 207.560,143.242 207.158,151.158 207.158 C 159.198 207.158,160.122 207.419,157.454 208.938 C 154.994 210.338,154.884 211.171,155.028 227.251 L 155.158 241.777 156.573 242.958 C 158.789 244.808,158.133 245.053,150.957 245.053 C 142.817 245.053,142.631 244.989,144.827 242.961 L 146.526 241.393 146.526 234.675 C 146.526 226.384,147.017 226.947,139.789 226.947 C 132.562 226.947,133.053 226.384,133.053 234.675 L 133.053 241.393 134.752 242.961 C 136.947 244.988,136.758 245.053,128.667 245.053 C 121.458 245.053,121.123 244.951,123.050 243.342 L 124.421 242.198 124.547 227.641 C 124.685 211.636,124.538 210.274,122.511 208.831 C 121.819 208.339,121.361 207.761,121.494 207.547 C 121.859 206.956,135.882 207.047,136.250 207.643 M180.923 207.730 C 181.043 207.850,180.364 208.689,179.413 209.593 L 177.684 211.238 177.684 226.367 C 177.684 242.818,177.697 242.914,180.068 243.815 C 182.344 244.680,180.424 245.053,173.684 245.053 C 166.289 245.053,165.524 244.831,167.286 243.197 C 169.079 241.536,169.343 238.967,169.191 224.632 C 169.042 210.613,168.841 209.300,166.741 208.633 C 165.346 208.190,165.780 207.640,167.684 207.437 C 169.929 207.198,180.628 207.435,180.923 207.730 M314.526 207.413 C 314.526 207.553,314.047 208.238,313.461 208.935 C 312.084 210.570,312.189 210.865,316.302 216.944 C 320.977 223.853,320.969 223.852,325.333 217.802 C 329.836 211.558,330.000 211.045,328.174 208.875 C 326.745 207.177,326.994 207.104,333.672 207.250 C 339.594 207.379,340.263 207.696,337.703 209.158 C 336.208 210.011,325.336 224.439,323.386 228.157 C 321.686 231.400,322.395 240.854,324.488 242.827 C 326.665 244.880,326.201 245.053,318.501 245.053 C 311.051 245.053,310.871 244.996,312.944 243.294 L 314.316 242.168 314.455 235.926 C 314.538 232.215,314.408 229.062,314.136 228.150 C 313.021 224.419,301.305 208.000,299.757 208.000 C 299.543 208.000,299.368 207.811,299.368 207.579 C 299.368 207.314,302.175 207.158,306.947 207.158 C 311.116 207.158,314.526 207.273,314.526 207.413 M42.526 265.309 C 42.526 267.301,47.478 273.954,50.695 276.284 C 53.522 278.332,55.832 277.549,54.782 274.898 C 53.097 270.643,42.526 262.372,42.526 265.309 M355.158 265.760 C 351.521 267.663,345.894 274.300,346.185 276.344 C 346.623 279.421,352.421 275.755,356.186 270.020 C 359.326 265.236,358.971 263.765,355.158 265.760 M45.424 266.189 C 50.594 269.330,56.090 276.139,54.079 276.910 C 52.313 277.588,47.290 273.070,44.498 268.293 C 42.436 264.764,42.572 264.456,45.424 266.189 M357.895 265.662 C 357.895 266.297,355.119 270.818,353.819 272.301 C 349.672 277.029,344.986 278.680,347.094 274.670 C 349.015 271.015,357.895 263.609,357.895 265.662 M69.997 273.278 C 65.516 275.078,70.005 282.239,77.996 286.039 C 82.217 288.046,82.209 288.034,80.113 289.459 C 75.160 292.824,66.525 288.671,63.549 281.492 C 62.878 279.873,62.348 279.158,61.817 279.158 C 59.816 279.158,62.674 285.803,66.022 288.934 C 70.872 293.470,78.896 293.989,83.178 290.042 L 85.004 288.359 88.361 288.652 C 90.208 288.813,96.519 288.709,102.385 288.421 C 121.096 287.502,131.596 289.261,149.713 296.348 C 160.135 300.425,167.552 302.885,168.733 302.657 C 170.756 302.268,169.085 301.265,162.947 299.185 C 156.407 296.968,150.668 294.499,142.206 290.259 C 130.871 284.579,120.491 283.353,103.158 285.647 C 88.270 287.617,85.850 287.294,84.021 283.096 C 81.306 276.864,73.927 271.698,69.997 273.278 M326.913 273.593 C 322.741 275.067,319.107 278.608,316.976 283.278 C 315.143 287.292,312.810 287.580,297.895 285.632 C 279.190 283.188,270.499 284.458,255.579 291.812 C 247.303 295.892,242.839 297.760,237.053 299.565 C 232.387 301.020,231.579 301.365,231.579 301.899 C 231.579 303.362,235.779 302.325,246.526 298.209 C 260.605 292.816,262.408 292.179,266.511 291.142 C 276.887 288.519,284.691 287.995,306.004 288.490 L 316.639 288.738 317.462 289.784 C 323.023 296.854,338.792 290.411,339.865 280.631 C 340.131 278.208,338.742 278.868,337.360 281.820 C 333.666 289.714,324.234 293.332,319.884 288.525 C 319.157 287.723,319.190 287.682,321.148 286.958 C 327.533 284.597,332.632 279.671,332.632 275.862 C 332.632 273.141,330.541 272.312,326.913 273.593 M75.530 274.833 C 78.817 276.476,81.485 279.284,83.398 283.115 C 84.544 285.408,85.405 286.616,86.025 286.800 C 88.092 287.414,95.621 287.096,103.469 286.063 C 121.630 283.674,129.247 284.734,143.789 291.675 C 152.967 296.055,157.891 298.091,164.526 300.249 C 168.594 301.572,170.466 302.737,167.474 302.084 C 165.313 301.612,156.007 298.386,151.158 296.427 C 131.610 288.532,124.216 287.432,94.869 288.051 L 84.264 288.275 82.608 289.771 C 76.110 295.641,64.060 290.443,61.668 280.737 C 61.179 278.752,62.057 279.481,63.124 281.946 C 66.237 289.133,75.420 293.422,80.421 290.025 C 82.092 288.890,82.596 287.286,81.398 286.920 C 73.953 284.640,66.515 276.922,69.368 274.436 C 70.934 273.072,72.167 273.152,75.530 274.833 M331.684 274.208 C 334.467 276.435,326.859 285.015,320.754 286.535 C 316.518 287.590,320.043 290.947,325.386 290.947 C 330.755 290.947,335.141 287.851,337.835 282.157 C 338.876 279.958,339.184 279.575,339.295 280.348 C 339.507 281.825,337.347 285.851,335.183 288.013 C 330.234 292.957,322.557 293.669,318.223 289.587 L 316.842 288.286 306.316 288.061 C 277.556 287.445,269.961 288.509,251.721 295.713 C 243.770 298.853,233.833 302.316,232.773 302.316 C 231.530 302.316,232.877 301.494,235.474 300.669 C 242.130 298.553,246.927 296.576,256.052 292.191 C 271.564 284.735,278.892 283.653,297.602 286.059 C 313.244 288.070,315.355 287.779,317.580 283.306 C 320.940 276.549,328.508 271.668,331.684 274.208 M71.242 275.453 C 68.897 277.798,75.711 284.573,81.579 285.730 C 82.821 285.975,82.947 285.906,82.947 284.977 C 82.947 280.978,73.447 273.248,71.242 275.453 M326.105 275.957 C 322.643 277.603,317.895 283.099,317.895 285.460 C 317.895 287.101,324.971 283.911,327.958 280.924 C 332.174 276.708,331.022 273.619,326.105 275.957 M74.947 276.432 C 78.659 278.322,84.207 285.474,81.962 285.474 C 79.478 285.474,71.158 279.079,71.158 277.171 C 71.158 275.385,72.411 275.141,74.947 276.432 M329.711 276.032 C 331.318 277.968,321.561 286.324,318.891 285.300 C 317.242 284.667,323.181 277.861,326.824 276.207 C 329.025 275.208,329.027 275.208,329.711 276.032 " stroke="none" fill="#000000" fill-rule="evenodd"></path></g></svg>